<?xml version="1.0" encoding="UTF-8"?><svg id="Lager_2" xmlns="http://www.w3.org/2000/svg" viewBox="0 0 965.45 1332.29"><defs><style>.cls-1{fill:none;}.cls-2{fill:#1d1d1b;}</style></defs><g id="text"><path class="cls-2" d="M292.28,939.24h23.18c5.5,0,9.68,1.32,12.54,3.97,2.86,2.65,4.29,6.46,4.29,11.43,0,3.02-.54,5.52-1.63,7.5-1.09,1.98-2.74,3.67-4.96,5.04,2.22.42,4.11,1.07,5.68,1.94,1.56.87,2.83,1.95,3.81,3.21.98,1.27,1.68,2.7,2.1,4.29.42,1.59.63,3.28.63,5.08,0,2.81-.49,5.29-1.47,7.46-.98,2.17-2.36,4-4.13,5.48-1.77,1.48-3.93,2.59-6.47,3.33-2.54.74-5.4,1.11-8.57,1.11h-25.01v-59.85ZM307.84,962.74h2.86c4.87,0,7.3-1.93,7.3-5.79s-2.43-5.79-7.3-5.79h-2.86v11.59ZM307.84,987.03h3.41c3.92,0,6.72-.5,8.41-1.51,1.69-1,2.54-2.62,2.54-4.84s-.85-3.84-2.54-4.84c-1.69-1-4.5-1.51-8.41-1.51h-3.41v12.7Z"/><path class="cls-2" d="M358.8,981.15c0,6.19,2.91,9.29,8.73,9.29,3.12,0,5.48-1.27,7.06-3.81h13.89c-2.81,9.31-9.82,13.97-21.04,13.97-3.44,0-6.59-.52-9.45-1.55-2.86-1.03-5.31-2.5-7.34-4.41-2.04-1.91-3.61-4.18-4.72-6.83-1.11-2.65-1.67-5.61-1.67-8.89s.53-6.44,1.59-9.17c1.06-2.73,2.57-5.04,4.52-6.95,1.96-1.91,4.33-3.37,7.1-4.41,2.78-1.03,5.91-1.55,9.41-1.55s6.54.52,9.29,1.55c2.75,1.03,5.08,2.53,6.99,4.48,1.91,1.96,3.36,4.35,4.37,7.18,1,2.83,1.51,6.02,1.51,9.57v1.51h-30.24ZM375.63,972.82c-.48-2.01-1.46-3.62-2.94-4.84-1.48-1.22-3.28-1.83-5.4-1.83-2.22,0-4.04.58-5.44,1.75-1.4,1.17-2.29,2.81-2.66,4.92h16.43Z"/><path class="cls-2" d="M428.65,958.37h14.45v40.72h-14.45v-4.52c-3.07,3.86-7.22,5.79-12.46,5.79-2.96,0-5.69-.54-8.18-1.63-2.49-1.08-4.66-2.61-6.51-4.56-1.85-1.96-3.29-4.26-4.33-6.91-1.03-2.65-1.55-5.53-1.55-8.65,0-2.91.5-5.68,1.51-8.29,1-2.62,2.41-4.91,4.21-6.87,1.8-1.96,3.94-3.5,6.43-4.64,2.49-1.14,5.24-1.71,8.26-1.71,5.08,0,9.29,1.77,12.62,5.32v-4.05ZM410.55,978.61c0,1.32.24,2.55.71,3.69.48,1.14,1.12,2.13,1.94,2.98.82.85,1.8,1.51,2.94,1.98,1.14.48,2.37.71,3.69.71s2.47-.24,3.61-.71c1.14-.48,2.12-1.14,2.94-1.98.82-.85,1.48-1.83,1.98-2.94.5-1.11.75-2.3.75-3.57s-.25-2.47-.75-3.61c-.5-1.14-1.17-2.13-1.98-2.98-.82-.85-1.8-1.51-2.94-1.98-1.14-.48-2.34-.71-3.61-.71s-2.55.24-3.69.71c-1.14.48-2.12,1.14-2.94,1.98-.82.85-1.47,1.81-1.94,2.9-.48,1.08-.71,2.26-.71,3.53Z"/><path class="cls-2" d="M484.3,933.21h14.45v65.89h-14.45v-4.52c-3.07,3.86-7.22,5.79-12.46,5.79-2.96,0-5.69-.56-8.18-1.67-2.49-1.11-4.66-2.65-6.51-4.6-1.85-1.96-3.29-4.26-4.33-6.91-1.03-2.65-1.55-5.5-1.55-8.57,0-2.91.49-5.68,1.47-8.29.98-2.62,2.37-4.91,4.17-6.87,1.8-1.96,3.96-3.5,6.47-4.64,2.51-1.14,5.28-1.71,8.29-1.71,5.08,0,9.29,1.77,12.62,5.32v-29.21ZM466.2,978.61c0,1.32.24,2.55.71,3.69.48,1.14,1.12,2.13,1.94,2.98.82.85,1.8,1.51,2.94,1.98,1.14.48,2.37.71,3.69.71s2.47-.24,3.61-.71c1.14-.48,2.12-1.14,2.94-1.98.82-.85,1.48-1.83,1.98-2.94.5-1.11.75-2.3.75-3.57s-.25-2.47-.75-3.61c-.5-1.14-1.16-2.13-1.98-2.98-.82-.85-1.8-1.51-2.94-1.98-1.14-.48-2.34-.71-3.61-.71s-2.47.24-3.61.71c-1.14.48-2.12,1.14-2.94,1.98-.82.85-1.48,1.81-1.99,2.9-.5,1.08-.75,2.26-.75,3.53Z"/><path class="cls-2" d="M532.17,969.09c0-4.76.62-9.09,1.87-12.98,1.24-3.89,2.99-7.21,5.24-9.96,2.25-2.75,4.92-4.88,8.02-6.39,3.1-1.51,6.52-2.26,10.28-2.26s7.12.75,10.24,2.26c3.12,1.51,5.79,3.64,8.02,6.39,2.22,2.75,3.96,6.07,5.2,9.96,1.24,3.89,1.87,8.22,1.87,12.98s-.62,9.09-1.87,12.98c-1.24,3.89-2.98,7.22-5.2,10-2.22,2.78-4.9,4.92-8.02,6.43-3.12,1.51-6.54,2.26-10.24,2.26s-7.18-.75-10.28-2.26c-3.1-1.51-5.77-3.65-8.02-6.43-2.25-2.78-4-6.11-5.24-10-1.24-3.89-1.87-8.22-1.87-12.98ZM547.57,969.09c0,2.65.24,5.05.71,7.22s1.15,4.05,2.02,5.64,1.92,2.82,3.14,3.69c1.22.87,2.59,1.31,4.13,1.31s2.84-.44,4.09-1.31c1.24-.87,2.29-2.1,3.14-3.69.85-1.59,1.51-3.47,1.98-5.64s.71-4.58.71-7.22-.24-4.99-.71-7.18c-.48-2.2-1.14-4.07-1.98-5.64-.85-1.56-1.89-2.78-3.14-3.65-1.24-.87-2.61-1.31-4.09-1.31s-2.91.44-4.13,1.31c-1.22.87-2.26,2.09-3.14,3.65-.87,1.56-1.55,3.44-2.02,5.64-.48,2.2-.71,4.59-.71,7.18Z"/><path class="cls-2" d="M586.14,969.09c0-4.76.62-9.09,1.87-12.98,1.24-3.89,2.99-7.21,5.24-9.96,2.25-2.75,4.92-4.88,8.02-6.39,3.1-1.51,6.52-2.26,10.28-2.26s7.12.75,10.24,2.26c3.12,1.51,5.79,3.64,8.02,6.39,2.22,2.75,3.96,6.07,5.2,9.96,1.24,3.89,1.87,8.22,1.87,12.98s-.62,9.09-1.87,12.98c-1.24,3.89-2.98,7.22-5.2,10-2.22,2.78-4.9,4.92-8.02,6.43-3.12,1.51-6.54,2.26-10.24,2.26s-7.18-.75-10.28-2.26c-3.1-1.51-5.77-3.65-8.02-6.43-2.25-2.78-4-6.11-5.24-10-1.24-3.89-1.87-8.22-1.87-12.98ZM601.54,969.09c0,2.65.24,5.05.71,7.22s1.15,4.05,2.02,5.64,1.92,2.82,3.14,3.69c1.22.87,2.59,1.31,4.13,1.31s2.84-.44,4.09-1.31c1.24-.87,2.29-2.1,3.14-3.69.85-1.59,1.51-3.47,1.98-5.64s.71-4.58.71-7.22-.24-4.99-.71-7.18c-.48-2.2-1.14-4.07-1.98-5.64-.85-1.56-1.89-2.78-3.14-3.65-1.24-.87-2.61-1.31-4.09-1.31s-2.91.44-4.13,1.31c-1.22.87-2.26,2.09-3.14,3.65-.87,1.56-1.55,3.44-2.02,5.64-.48,2.2-.71,4.59-.71,7.18Z"/><path class="cls-2" d="M682.99,952.42h-20.72l-1.03,6.59c.95-.11,1.83-.2,2.62-.28.79-.08,1.61-.12,2.46-.12,3.02,0,5.82.53,8.42,1.59,2.59,1.06,4.81,2.51,6.67,4.37,1.85,1.85,3.31,4.08,4.37,6.67,1.06,2.59,1.59,5.43,1.59,8.49,0,3.23-.59,6.14-1.79,8.73-1.19,2.59-2.87,4.8-5.04,6.63-2.17,1.83-4.82,3.23-7.94,4.21-3.12.98-6.59,1.47-10.4,1.47-3.6,0-7.02-.44-10.28-1.31s-6.31-2.21-9.17-4.01l2.3-14.61c2.65,2.28,5.34,4.01,8.1,5.2,2.75,1.19,5.37,1.79,7.86,1.79,3.18,0,5.69-.86,7.54-2.58,1.85-1.72,2.78-3.85,2.78-6.39,0-2.96-1.24-5.36-3.73-7.18-2.49-1.83-5.74-2.74-9.76-2.74-1.8,0-3.65.2-5.56.6-1.91.4-3.78,1.02-5.64,1.87l5-32.15h31.36v13.18Z"/><rect class="cls-1" width="965.45" height="1332.29"/></g></svg>