<svg xmlns="http://www.w3.org/2000/svg" viewBox="0 0 965.45 1332.29" xmlns:v="https://vecta.io/nano"><path d="M142.55 193.89h680.34v680.34H142.55z"/><circle cx="411.86" cy="491.55" r="14.17" fill="#149d39"/><circle cx="440.2" cy="491.55" r="14.17" fill="#164421"/><circle cx="468.55" cy="491.55" r="14.17" fill="#a1bbb3"/><circle cx="411.86" cy="519.9" r="14.17" fill="#6cb96a"/><circle cx="440.2" cy="519.9" r="14.17" fill="#69b53c"/><circle cx="468.55" cy="519.9" r="14.17" fill="#6db96a"/><circle cx="496.9" cy="519.9" r="14.17" fill="#54b25f"/><circle cx="525.24" cy="519.9" r="14.17" fill="#194622"/><circle cx="411.86" cy="548.25" r="14.17" fill="#67b430"/><circle cx="440.2" cy="548.25" r="14.17" fill="#008f39"/><circle cx="468.55" cy="548.25" r="14.17" fill="#03662f"/><circle cx="496.9" cy="548.25" r="14.17" fill="#077c36"/><circle cx="525.24" cy="548.25" r="14.17" fill="#1b381e"/><circle cx="553.59" cy="548.25" r="14.17" fill="#2d4024"/><circle cx="581.94" cy="548.25" r="14.17" fill="#668e79"/><circle cx="355.16" cy="576.59" r="14.17" fill="#294b39"/><circle cx="383.51" cy="576.59" r="14.17" fill="#16a438"/><circle cx="411.86" cy="576.59" r="14.17" fill="#72b630"/><circle cx="440.2" cy="576.59" r="14.17" fill="#108737"/><circle cx="468.55" cy="576.59" r="14.17" fill="#02622d"/><circle cx="496.9" cy="576.59" r="14.17" fill="#00793a"/><circle cx="525.24" cy="576.59" r="14.17" fill="#71bf93"/><circle cx="553.59" cy="576.59" r="14.17" fill="#6ebe96"/><circle cx="581.94" cy="576.59" r="14.17" fill="#76c19a"/><circle cx="355.16" cy="604.94" r="14.17" fill="#235c2a"/><circle cx="383.51" cy="604.94" r="14.17" fill="#1a391f"/><circle cx="411.86" cy="604.94" r="14.17" fill="#3cab3c"/><circle cx="440.2" cy="604.94" r="14.17" fill="#162b1a"/><circle cx="468.55" cy="604.94" r="14.17" fill="#008e3a"/><circle cx="496.9" cy="604.94" r="14.17" fill="#064e25"/><circle cx="525.24" cy="604.94" r="14.17" fill="#62b881"/><circle cx="553.59" cy="604.94" r="14.17" fill="#65b871"/><circle cx="581.94" cy="604.94" r="14.17" fill="#0e5d38"/><circle cx="610.28" cy="604.94" r="14.17" fill="#0f2318"/><circle cx="383.51" cy="633.29" r="14.17" fill="#53b265"/><circle cx="411.86" cy="633.29" r="14.17" fill="#05622d"/><circle cx="440.2" cy="633.29" r="14.17" fill="#009d48"/><circle cx="468.55" cy="633.29" r="14.17" fill="#4bb275"/><circle cx="496.9" cy="633.29" r="14.17" fill="#798062"/><circle cx="525.24" cy="633.29" r="14.17" fill="#afb399"/><circle cx="553.59" cy="633.29" r="14.17" fill="#70bc81"/><circle cx="581.94" cy="633.29" r="14.17" fill="#a2a192"/><circle cx="610.28" cy="633.29" r="14.17" fill="#81bea3"/><circle cx="411.86" cy="661.63" r="14.17" fill="#008950"/><circle cx="440.2" cy="661.63" r="14.17" fill="#58b575"/><circle cx="468.55" cy="661.63" r="14.17" fill="#58b365"/><circle cx="496.9" cy="661.63" r="14.17" fill="#74be8a"/><circle cx="525.24" cy="661.63" r="14.17" fill="#438353"/><circle cx="553.59" cy="661.63" r="14.17" fill="#4db37c"/><circle cx="581.94" cy="661.63" r="14.17" fill="#4fa47a"/><circle cx="610.28" cy="661.63" r="14.17" fill="#88c8ac"/><circle cx="638.63" cy="661.63" r="14.17" fill="#888280"/><circle cx="383.51" cy="689.98" r="14.17" fill="#38af76"/><circle cx="411.86" cy="689.98" r="14.17" fill="#65b986"/><circle cx="440.2" cy="689.98" r="14.17" fill="#1a4421"/><circle cx="468.55" cy="689.98" r="14.17" fill="#00863c"/><circle cx="496.9" cy="689.98" r="14.17" fill="#008b3e"/><circle cx="525.24" cy="689.98" r="14.17" fill="#75c091"/><circle cx="553.59" cy="689.98" r="14.17" fill="#008041"/><circle cx="581.94" cy="689.98" r="14.17" fill="#00874f"/><circle cx="610.28" cy="689.98" r="14.17" fill="#36624e"/><circle cx="383.51" cy="718.33" r="14.17" fill="#4eb58b"/><circle cx="411.86" cy="718.33" r="14.17" fill="#78c19b"/><circle cx="440.2" cy="718.33" r="14.17" fill="#6abc95"/><circle cx="468.55" cy="718.33" r="14.17" fill="#123d20"/><circle cx="496.9" cy="718.33" r="14.17" fill="#0d4a24"/><circle cx="525.24" cy="718.33" r="14.17" fill="#52b47f"/><circle cx="553.59" cy="718.33" r="14.17" fill="#6dbe9d"/><circle cx="383.51" cy="746.67" r="14.17" fill="#328a68"/><circle cx="411.86" cy="746.67" r="14.17" fill="#132318"/><circle cx="468.55" cy="746.67" r="14.17" fill="#339c6d"/><circle cx="496.9" cy="746.67" r="14.17" fill="#0b1410"/><circle cx="525.24" cy="746.67" r="14.17" fill="#4fa47a"/></svg>