<svg xmlns="http://www.w3.org/2000/svg" viewBox="0 0 965.45 1332.29" xmlns:v="https://vecta.io/nano"><path d="M142.06 193.8H822.4v680.34H142.06z"/><circle cx="354.67" cy="463.12" r="14.17" fill="#e5bac2"/><circle cx="383.01" cy="463.12" r="14.17" fill="#421213"/><circle cx="411.36" cy="463.12" r="14.17" fill="#ee82ab"/><circle cx="439.71" cy="463.12" r="14.17" fill="#5c1218"/><circle cx="354.67" cy="491.46" r="14.17" fill="#461116"/><circle cx="383.01" cy="491.46" r="14.17" fill="#881728"/><circle cx="411.36" cy="491.46" r="14.17" fill="#ed70a8"/><circle cx="439.71" cy="491.46" r="14.17" fill="#e74d95"/><circle cx="468.05" cy="491.46" r="14.17" fill="#ea5080"/><circle cx="326.32" cy="519.81" r="14.17" fill="#9e848c"/><circle cx="354.67" cy="519.81" r="14.17" fill="#ed6fa7"/><circle cx="383.01" cy="519.81" r="14.17" fill="#e83c89"/><circle cx="411.36" cy="519.81" r="14.17" fill="#e83b87"/><circle cx="439.71" cy="519.81" r="14.17" fill="#7f1718"/><circle cx="468.05" cy="519.81" r="14.17" fill="#691b3e"/><circle cx="496.4" cy="519.81" r="14.17" fill="#94afb5"/><circle cx="581.44" cy="519.81" r="14.17" fill="#6e8383"/><circle cx="354.67" cy="548.16" r="14.17" fill="#e84b93"/><circle cx="383.01" cy="548.16" r="14.17" fill="#af192f"/><circle cx="411.36" cy="548.16" r="14.17" fill="#e1598f"/><circle cx="439.71" cy="548.16" r="14.17" fill="#aa6d97"/><circle cx="468.05" cy="548.16" r="14.17" fill="#007589"/><circle cx="496.4" cy="548.16" r="14.17" fill="#57c2f0"/><circle cx="524.75" cy="548.16" r="14.17" fill="#7dcad9"/><circle cx="553.09" cy="548.16" r="14.17" fill="#71c9e6"/><circle cx="581.44" cy="548.16" r="14.17" fill="#024759"/><circle cx="354.67" cy="576.5" r="14.17" fill="#4f273c"/><circle cx="383.01" cy="576.5" r="14.17" fill="#33192b"/><circle cx="411.36" cy="576.5" r="14.17" fill="#33111c"/><circle cx="439.71" cy="576.5" r="14.17" fill="#38423f"/><circle cx="468.05" cy="576.5" r="14.17" fill="#76a8bc"/><circle cx="496.4" cy="576.5" r="14.17" fill="#006d98"/><circle cx="524.75" cy="576.5" r="14.17" fill="#52c0d9"/><circle cx="553.09" cy="576.5" r="14.17" fill="#76a8bc"/><circle cx="581.44" cy="576.5" r="14.17" fill="#4db1c6"/><circle cx="609.79" cy="576.5" r="14.17" fill="#2a2a2a"/><circle cx="326.32" cy="604.85" r="14.17" fill="#697b60"/><circle cx="354.67" cy="604.85" r="14.17" fill="#4fb271"/><circle cx="383.01" cy="604.85" r="14.17" fill="#088f45"/><circle cx="411.36" cy="604.85" r="14.17" fill="#38423f"/><circle cx="439.71" cy="604.85" r="14.17" fill="#49bbc2"/><circle cx="468.05" cy="604.85" r="14.17" fill="#26bbe2"/><circle cx="496.4" cy="604.85" r="14.17" fill="#28909c"/><circle cx="524.75" cy="604.85" r="14.17" fill="#72c7d6"/><circle cx="553.09" cy="604.85" r="14.17" fill="#2cb3a6"/><circle cx="581.44" cy="604.85" r="14.17" fill="#3ea0a3"/><circle cx="609.79" cy="604.85" r="14.17" fill="#3ba085"/><circle cx="326.32" cy="633.2" r="14.17" fill="#008d42"/><circle cx="354.67" cy="633.2" r="14.17" fill="#3bab3f"/><circle cx="383.01" cy="633.2" r="14.17" fill="#006d31"/><circle cx="411.36" cy="633.2" r="14.17" fill="#003c4c"/><circle cx="439.71" cy="633.2" r="14.17" fill="#50c2ef"/><circle cx="468.05" cy="633.2" r="14.17" fill="#006593"/><circle cx="496.4" cy="633.2" r="14.17" fill="#3dbcd8"/><circle cx="524.75" cy="633.2" r="14.17" fill="#84cfec"/><circle cx="553.09" cy="633.2" r="14.17" fill="#006a84"/><circle cx="581.44" cy="633.2" r="14.17" fill="#74c9e0"/><circle cx="297.97" cy="661.54" r="14.17" fill="#a9ceb0"/><circle cx="326.32" cy="661.54" r="14.17" fill="#40ac46"/><circle cx="354.67" cy="661.54" r="14.17" fill="#006930"/><circle cx="383.01" cy="661.54" r="14.17" fill="#1b7f8d"/><circle cx="411.36" cy="661.54" r="14.17" fill="#003d52"/><circle cx="439.71" cy="661.54" r="14.17" fill="#54c1d9"/><circle cx="468.05" cy="661.54" r="14.17" fill="#52c2ed"/><circle cx="496.4" cy="661.54" r="14.17" fill="#25a3b8"/><circle cx="524.75" cy="661.54" r="14.17" fill="#76c9de"/><circle cx="553.09" cy="661.54" r="14.17" fill="#04526a"/><circle cx="581.44" cy="661.54" r="14.17" fill="#478caf"/><circle cx="297.97" cy="689.89" r="14.17" fill="#38423f"/><circle cx="326.32" cy="689.89" r="14.17" fill="#8dbc98"/><circle cx="354.67" cy="689.89" r="14.17" fill="#449fa2"/><circle cx="383.01" cy="689.89" r="14.17" fill="#09ade0"/><circle cx="411.36" cy="689.89" r="14.17" fill="#5ac1d1"/><circle cx="439.71" cy="689.89" r="14.17" fill="#67c1d5"/><circle cx="468.05" cy="689.89" r="14.17" fill="#073142"/><circle cx="496.4" cy="689.89" r="14.17" fill="#3aaaa8"/><circle cx="524.75" cy="689.89" r="14.17" fill="#76c8d6"/><circle cx="553.09" cy="689.89" r="14.17" fill="#2d3354"/><circle cx="581.44" cy="689.89" r="14.17" fill="#1991ae"/><circle cx="609.79" cy="689.89" r="14.17" fill="#2f2f30"/><circle cx="354.67" cy="718.24" r="14.17" fill="#162e48"/><circle cx="383.01" cy="718.24" r="14.17" fill="#009cb1"/><circle cx="411.36" cy="718.24" r="14.17" fill="#70c8e0"/><circle cx="439.71" cy="718.24" r="14.17" fill="#6ec7e0"/><circle cx="468.05" cy="718.24" r="14.17" fill="#014358"/><circle cx="496.4" cy="718.24" r="14.17" fill="#5dc0c7"/><circle cx="524.75" cy="718.24" r="14.17" fill="#015276"/><circle cx="553.09" cy="718.24" r="14.17" fill="#16bae6"/><circle cx="581.44" cy="718.24" r="14.17" fill="#39777d"/><circle cx="383.01" cy="746.58" r="14.17" fill="#00aca9"/><circle cx="411.36" cy="746.58" r="14.17" fill="#72c9e4"/><circle cx="439.71" cy="746.58" r="14.17" fill="#7acadd"/><circle cx="468.05" cy="746.58" r="14.17" fill="#19849f"/><circle cx="496.4" cy="746.58" r="14.17" fill="#2d3354"/><circle cx="524.75" cy="746.58" r="14.17" fill="#2eb7c9"/><circle cx="553.09" cy="746.58" r="14.17" fill="#04688f"/><circle cx="581.44" cy="746.58" r="14.17" fill="#a2c6b9"/><circle cx="383.01" cy="774.93" r="14.17" fill="#796f7a"/><circle cx="411.36" cy="774.93" r="14.17" fill="#71777e"/><circle cx="439.71" cy="774.93" r="14.17" fill="#4e5d61"/><circle cx="468.05" cy="774.93" r="14.17" fill="#818289"/><circle cx="496.4" cy="774.93" r="14.17" fill="#76a8bc"/><circle cx="524.75" cy="774.93" r="14.17" fill="#717179"/><circle cx="553.09" cy="774.93" r="14.17" fill="#73737b"/></svg>