<svg xmlns="http://www.w3.org/2000/svg" viewBox="0 0 965.45 1332.29" xmlns:v="https://vecta.io/nano"><path d="M142.06 193.8H822.4v680.34H142.06z"/><circle cx="383.01" cy="406.42" r="14.17" fill="#946468"/><circle cx="524.75" cy="406.42" r="14.17" fill="#8a636a"/><circle cx="354.67" cy="434.77" r="14.17" fill="#391211"/><circle cx="383.01" cy="434.77" r="14.17" fill="#eb5d87"/><circle cx="411.36" cy="434.77" r="14.17" fill="#ef7eaa"/><circle cx="439.71" cy="434.77" r="14.17" fill="#ed6a92"/><circle cx="468.05" cy="434.77" r="14.17" fill="#861812"/><circle cx="496.4" cy="434.77" r="14.17" fill="#ee7494"/><circle cx="524.75" cy="434.77" r="14.17" fill="#f197bd"/><circle cx="553.09" cy="434.77" r="14.17" fill="#ec678b"/><circle cx="581.44" cy="434.77" r="14.17" fill="#5d171b"/><circle cx="269.63" cy="463.12" r="14.17" fill="#621312"/><circle cx="297.97" cy="463.12" r="14.17" fill="#ec617f"/><circle cx="326.32" cy="463.12" r="14.17" fill="#ee81aa"/><circle cx="354.67" cy="463.12" r="14.17" fill="#ec6195"/><circle cx="383.01" cy="463.12" r="14.17" fill="#e94777"/><circle cx="411.36" cy="463.12" r="14.17" fill="#b21a1f"/><circle cx="439.71" cy="463.12" r="14.17" fill="#3f1e20"/><circle cx="468.05" cy="463.12" r="14.17" fill="#202025"/><circle cx="496.4" cy="463.12" r="14.17" fill="#3f1e20"/><circle cx="524.75" cy="463.12" r="14.17" fill="#bc2d25"/><circle cx="553.09" cy="463.12" r="14.17" fill="#ea4d79"/><circle cx="581.44" cy="463.12" r="14.17" fill="#ec638e"/><circle cx="609.79" cy="463.12" r="14.17" fill="#ef7faa"/><circle cx="638.13" cy="463.12" r="14.17" fill="#e95291"/><circle cx="666.48" cy="463.12" r="14.17" fill="#df636a"/><circle cx="269.63" cy="491.46" r="14.17" fill="#ea4c80"/><circle cx="297.97" cy="491.46" r="14.17" fill="#ee74a4"/><circle cx="326.32" cy="491.46" r="14.17" fill="#e94781"/><circle cx="354.67" cy="491.46" r="14.17" fill="#811814"/><circle cx="383.01" cy="491.46" r="14.17" fill="#e6233d"/><circle cx="411.36" cy="491.46" r="14.17" fill="#e62841"/><circle cx="439.71" cy="491.46" r="14.17" fill="#f59b3d"/><circle cx="468.05" cy="491.46" r="14.17" fill="#f3a511"/><circle cx="496.4" cy="491.46" r="14.17" fill="#f2913e"/><circle cx="524.75" cy="491.46" r="14.17" fill="#e62d31"/><circle cx="553.09" cy="491.46" r="14.17" fill="#df2240"/><circle cx="581.44" cy="491.46" r="14.17" fill="#8d1914"/><circle cx="609.79" cy="491.46" r="14.17" fill="#ea4f7f"/><circle cx="638.13" cy="491.46" r="14.17" fill="#ed81b2"/><circle cx="666.48" cy="491.46" r="14.17" fill="#ea507e"/><circle cx="269.63" cy="519.81" r="14.17" fill="#601a17"/><circle cx="297.97" cy="519.81" r="14.17" fill="#bd5655"/><circle cx="326.32" cy="519.81" r="14.17" fill="#eb5f78"/><circle cx="354.67" cy="519.81" r="14.17" fill="#ea526d"/><circle cx="383.01" cy="519.81" r="14.17" fill="#f297a4"/><circle cx="411.36" cy="519.81" r="14.17" fill="#e94773"/><circle cx="439.71" cy="519.81" r="14.17" fill="#4f1a1d"/><circle cx="468.05" cy="519.81" r="14.17" fill="#060506"/><circle cx="496.4" cy="519.81" r="14.17" fill="#4f1a1d"/><circle cx="524.75" cy="519.81" r="14.17" fill="#ea5b6d"/><circle cx="553.09" cy="519.81" r="14.17" fill="#f3a0b0"/><circle cx="581.44" cy="519.81" r="14.17" fill="#ea5579"/><circle cx="609.79" cy="519.81" r="14.17" fill="#eb5d85"/><circle cx="638.13" cy="519.81" r="14.17" fill="#a83e4e"/><circle cx="666.48" cy="519.81" r="14.17" fill="#9e1927"/><circle cx="297.97" cy="548.16" r="14.17" fill="#deccbd"/><circle cx="326.32" cy="548.16" r="14.17" fill="#691510"/><circle cx="354.67" cy="548.16" r="14.17" fill="#e73561"/><circle cx="383.01" cy="548.16" r="14.17" fill="#e9415f"/><g fill="#331c42"><circle cx="439.71" cy="548.16" r="14.17"/><circle cx="468.05" cy="548.16" r="14.17"/></g><circle cx="496.4" cy="548.16" r="14.17" fill="#1f1428"/><circle cx="553.09" cy="548.16" r="14.17" fill="#e94553"/><circle cx="581.44" cy="548.16" r="14.17" fill="#e83a60"/><circle cx="609.79" cy="548.16" r="14.17" fill="#531413"/><circle cx="638.13" cy="548.16" r="14.17" fill="#e0e0de"/><circle cx="354.67" cy="576.5" r="14.17" fill="#caa4a3"/><circle cx="383.01" cy="576.5" r="14.17" fill="#192519"/><circle cx="411.36" cy="576.5" r="14.17" fill="#43343a"/><circle cx="439.71" cy="576.5" r="14.17" fill="#978580"/><circle cx="468.05" cy="576.5" r="14.17" fill="#9b887a"/><circle cx="496.4" cy="576.5" r="14.17" fill="#5b4d44"/><circle cx="524.75" cy="576.5" r="14.17" fill="#5e8f65"/><circle cx="553.09" cy="576.5" r="14.17" fill="#336d2e"/><circle cx="581.44" cy="576.5" r="14.17" fill="#43742f"/><circle cx="609.79" cy="576.5" r="14.17" fill="#223a2c"/><circle cx="638.13" cy="576.5" r="14.17" fill="#2e333a"/><circle cx="326.32" cy="604.85" r="14.17" fill="#132117"/><circle cx="354.67" cy="604.85" r="14.17" fill="#0e5227"/><circle cx="383.01" cy="604.85" r="14.17" fill="#549269"/><circle cx="411.36" cy="604.85" r="14.17" fill="#353b3d"/><circle cx="439.71" cy="604.85" r="14.17" fill="#2c1e1b"/><circle cx="468.05" cy="604.85" r="14.17" fill="#353b3d"/><circle cx="496.4" cy="604.85" r="14.17" fill="#014d49"/><circle cx="524.75" cy="604.85" r="14.17" fill="#107755"/><circle cx="553.09" cy="604.85" r="14.17" fill="#006841"/><circle cx="581.44" cy="604.85" r="14.17" fill="#223a2c"/><circle cx="609.79" cy="604.85" r="14.17" fill="#42917e"/><circle cx="638.13" cy="604.85" r="14.17" fill="#023323"/><circle cx="666.48" cy="604.85" r="14.17" fill="#023931"/><circle cx="269.63" cy="633.2" r="14.17" fill="#0f1d1d"/><circle cx="297.97" cy="633.2" r="14.17" fill="#336360"/><circle cx="326.32" cy="633.2" r="14.17" fill="#19361d"/><circle cx="354.67" cy="633.2" r="14.17" fill="#60b565"/><circle cx="383.01" cy="633.2" r="14.17" fill="#007333"/><circle cx="411.36" cy="633.2" r="14.17" fill="#1c6d61"/><circle cx="439.71" cy="633.2" r="14.17" fill="#2f7d71"/><circle cx="468.05" cy="633.2" r="14.17" fill="#006963"/><circle cx="496.4" cy="633.2" r="14.17" fill="#0d9aad"/><circle cx="524.75" cy="633.2" r="14.17" fill="#026164"/><circle cx="553.09" cy="633.2" r="14.17" fill="#02858d"/><circle cx="581.44" cy="633.2" r="14.17" fill="#00384d"/><circle cx="609.79" cy="633.2" r="14.17" fill="#73c6cd"/><circle cx="638.13" cy="633.2" r="14.17" fill="#44babd"/><circle cx="666.48" cy="633.2" r="14.17" fill="#062c35"/><circle cx="269.63" cy="661.54" r="14.17" fill="#213737"/><circle cx="297.97" cy="661.54" r="14.17" fill="#015e4b"/><circle cx="326.32" cy="661.54" r="14.17" fill="#072b1d"/><circle cx="354.67" cy="661.54" r="14.17" fill="#353b3d"/><circle cx="383.01" cy="661.54" r="14.17" fill="#191f32"/><circle cx="411.36" cy="661.54" r="14.17" fill="#04849f"/><circle cx="439.71" cy="661.54" r="14.17" fill="#00706d"/><circle cx="468.05" cy="661.54" r="14.17" fill="#0cb4be"/><circle cx="496.4" cy="661.54" r="14.17" fill="#24b5ba"/><circle cx="524.75" cy="661.54" r="14.17" fill="#11182b"/><circle cx="553.09" cy="661.54" r="14.17" fill="#5ec2d1"/><circle cx="581.44" cy="661.54" r="14.17" fill="#34b6b2"/><circle cx="609.79" cy="661.54" r="14.17" fill="#009f9f"/><circle cx="638.13" cy="661.54" r="14.17" fill="#25b8ce"/><circle cx="666.48" cy="661.54" r="14.17" fill="#075758"/><circle cx="269.63" cy="689.89" r="14.17" fill="#5b615e"/><circle cx="297.97" cy="689.89" r="14.17" fill="#70999b"/><circle cx="326.32" cy="689.89" r="14.17" fill="#002727"/><circle cx="354.67" cy="689.89" r="14.17" fill="#00a9ab"/><circle cx="383.01" cy="689.89" r="14.17" fill="#00a1ad"/><circle cx="411.36" cy="689.89" r="14.17" fill="#0199ae"/><circle cx="439.71" cy="689.89" r="14.17" fill="#05a9b5"/><circle cx="468.05" cy="689.89" r="14.17" fill="#038a94"/><circle cx="496.4" cy="689.89" r="14.17" fill="#12b5c4"/><circle cx="524.75" cy="689.89" r="14.17" fill="#55b7c6"/><circle cx="553.09" cy="689.89" r="14.17" fill="#eddaec"/><circle cx="581.44" cy="689.89" r="14.17" fill="#0cb6c8"/><circle cx="609.79" cy="689.89" r="14.17" fill="#21b3ad"/><circle cx="638.13" cy="689.89" r="14.17" fill="#55a4b9"/><circle cx="666.48" cy="689.89" r="14.17" fill="#18b4b7"/><circle cx="694.82" cy="689.89" r="14.17" fill="#61868d"/><circle cx="326.32" cy="718.24" r="14.17" fill="#008386"/><circle cx="354.67" cy="718.24" r="14.17" fill="#37b7b3"/><circle cx="383.01" cy="718.24" r="14.17" fill="#00b1b9"/><circle cx="411.36" cy="718.24" r="14.17" fill="#007a92"/><circle cx="439.71" cy="718.24" r="14.17" fill="#00a8aa"/><circle cx="468.05" cy="718.24" r="14.17" fill="#002d30"/><circle cx="496.4" cy="718.24" r="14.17" fill="#00aea9"/><circle cx="524.75" cy="718.24" r="14.17" fill="#0d2739"/><circle cx="553.09" cy="718.24" r="14.17" fill="#7aaed3"/><circle cx="581.44" cy="718.24" r="14.17" fill="#002c24"/><circle cx="609.79" cy="718.24" r="14.17" fill="#353b3d"/><circle cx="638.13" cy="718.24" r="14.17" fill="#023642"/><circle cx="666.48" cy="718.24" r="14.17" fill="#002727"/><circle cx="297.97" cy="746.58" r="14.17" fill="#84a6af"/><circle cx="326.32" cy="746.58" r="14.17" fill="#00a5a8"/><circle cx="354.67" cy="746.58" r="14.17" fill="#1fb6c3"/><circle cx="383.01" cy="746.58" r="14.17" fill="#64c4d7"/><circle cx="411.36" cy="746.58" r="14.17" fill="#24b4b0"/><circle cx="439.71" cy="746.58" r="14.17" fill="#00aeab"/><circle cx="468.05" cy="746.58" r="14.17" fill="#004f49"/><circle cx="496.4" cy="746.58" r="14.17" fill="#353b3d"/><circle cx="524.75" cy="746.58" r="14.17" fill="#ae95c1"/><circle cx="553.09" cy="746.58" r="14.17" fill="#d699c4"/><circle cx="581.44" cy="746.58" r="14.17" fill="#d29bc5"/><circle cx="609.79" cy="746.58" r="14.17" fill="#b389b8"/><circle cx="638.13" cy="746.58" r="14.17" fill="#353b3d"/><circle cx="666.48" cy="746.58" r="14.17" fill="#49978a"/><circle cx="326.32" cy="774.93" r="14.17" fill="#01565d"/><circle cx="354.67" cy="774.93" r="14.17" fill="#03a3a8"/><circle cx="383.01" cy="774.93" r="14.17" fill="#0eb4ba"/><circle cx="411.36" cy="774.93" r="14.17" fill="#00726c"/><circle cx="439.71" cy="774.93" r="14.17" fill="#089a9b"/><circle cx="468.05" cy="774.93" r="14.17" fill="#00a9ae"/><circle cx="496.4" cy="774.93" r="14.17" fill="#00435d"/><circle cx="524.75" cy="774.93" r="14.17" fill="#058694"/><circle cx="553.09" cy="774.93" r="14.17" fill="#044e64"/><circle cx="581.44" cy="774.93" r="14.17" fill="#235173"/><circle cx="609.79" cy="774.93" r="14.17" fill="#2e8a9b"/><circle cx="638.13" cy="774.93" r="14.17" fill="#013a3a"/><circle cx="666.48" cy="774.93" r="14.17" fill="#006f65"/><circle cx="354.67" cy="803.28" r="14.17" fill="#337177"/><circle cx="439.71" cy="803.28" r="14.17" fill="#032a38"/><circle cx="468.05" cy="803.28" r="14.17" fill="#00a595"/><circle cx="496.4" cy="803.28" r="14.17" fill="#009a95"/><circle cx="524.75" cy="803.28" r="14.17" fill="#727b92"/><circle cx="553.09" cy="803.28" r="14.17" fill="#20333e"/><circle cx="581.44" cy="803.28" r="14.17" fill="#022127"/><circle cx="609.79" cy="803.28" r="14.17" fill="#668790"/><circle cx="638.13" cy="803.28" r="14.17" fill="#b4d0d4"/></svg>