<svg xmlns="http://www.w3.org/2000/svg" viewBox="0 0 965.45 1332.29" xmlns:v="https://vecta.io/nano"><path d="M142.06 193.8H822.4v680.34H142.06z"/><circle cx="524.75" cy="463.12" r="14.17" fill="#f9b777"/><circle cx="553.09" cy="463.12" r="14.17" fill="#8e502d"/><circle cx="326.32" cy="491.46" r="14.17" fill="#ee7537"/><circle cx="411.36" cy="491.46" r="14.17" fill="#f28e49"/><circle cx="496.4" cy="491.46" r="14.17" fill="#ba661a"/><circle cx="524.75" cy="491.46" r="14.17" fill="#f6a341"/><circle cx="553.09" cy="491.46" r="14.17" fill="#f49822"/><circle cx="581.44" cy="491.46" r="14.17" fill="#fbc993"/><circle cx="383.01" cy="519.81" r="14.17" fill="#ea5d1e"/><circle cx="411.36" cy="519.81" r="14.17" fill="#ea571f"/><circle cx="496.4" cy="519.81" r="14.17" fill="#868c61"/><circle cx="524.75" cy="519.81" r="14.17" fill="#48613f"/><circle cx="553.09" cy="519.81" r="14.17" fill="#f4981d"/><circle cx="581.44" cy="519.81" r="14.17" fill="#fdcd75"/><circle cx="354.67" cy="548.16" r="14.17" fill="#ed691c"/><circle cx="383.01" cy="548.16" r="14.17" fill="#f9af18"/><circle cx="411.36" cy="548.16" r="14.17" fill="#ea641d"/><circle cx="439.71" cy="548.16" r="14.17" fill="#f6a457"/><circle cx="468.05" cy="548.16" r="14.17" fill="#c29e80"/><circle cx="496.4" cy="548.16" r="14.17" fill="#f28a49"/><circle cx="524.75" cy="548.16" r="14.17" fill="#f18628"/><circle cx="553.09" cy="548.16" r="14.17" fill="#f28d22"/><circle cx="581.44" cy="548.16" r="14.17" fill="#ebb363"/><circle cx="326.32" cy="576.5" r="14.17" fill="#ea641d"/><circle cx="354.67" cy="576.5" r="14.17" fill="#fcc207"/><circle cx="383.01" cy="576.5" r="14.17" fill="#ee741e"/><circle cx="411.36" cy="576.5" r="14.17" fill="#eb621d"/><circle cx="468.05" cy="576.5" r="14.17" fill="#d94c1e"/><circle cx="496.4" cy="576.5" r="14.17" fill="#f18b52"/><circle cx="524.75" cy="576.5" r="14.17" fill="#cb6f26"/><circle cx="553.09" cy="576.5" r="14.17" fill="#f28c21"/><circle cx="581.44" cy="576.5" r="14.17" fill="#fab73e"/><circle cx="326.32" cy="604.85" r="14.17" fill="#ea641d"/><circle cx="354.67" cy="604.85" r="14.17" fill="#fce209"/><circle cx="383.01" cy="604.85" r="14.17" fill="#ea571f"/><circle cx="411.36" cy="604.85" r="14.17" fill="#fac187"/><circle cx="439.71" cy="604.85" r="14.17" fill="#ba6963"/><circle cx="468.05" cy="604.85" r="14.17" fill="#f59b30"/><circle cx="496.4" cy="604.85" r="14.17" fill="#ed6b1f"/><circle cx="524.75" cy="604.85" r="14.17" fill="#f28c2d"/><circle cx="326.32" cy="633.2" r="14.17" fill="#f7a858"/><circle cx="354.67" cy="633.2" r="14.17" fill="#ee8805"/><circle cx="383.01" cy="633.2" r="14.17" fill="#d2826a"/><circle cx="439.71" cy="633.2" r="14.17" fill="#f8ac2f"/><circle cx="468.05" cy="633.2" r="14.17" fill="#d94216"/><circle cx="496.4" cy="633.2" r="14.17" fill="#f6a43f"/><circle cx="524.75" cy="633.2" r="14.17" fill="#ffdb80"/><circle cx="553.09" cy="633.2" r="14.17" fill="#3f3d3d"/><circle cx="581.44" cy="633.2" r="14.17" fill="#dcd3b5"/><circle cx="354.67" cy="661.54" r="14.17" fill="#5c2b14"/><circle cx="383.01" cy="661.54" r="14.17" fill="#ee7333"/><circle cx="411.36" cy="661.54" r="14.17" fill="#c15c17"/><circle cx="439.71" cy="661.54" r="14.17" fill="#f69f27"/><circle cx="468.05" cy="661.54" r="14.17" fill="#f2902f"/><circle cx="496.4" cy="661.54" r="14.17" fill="#a6461a"/><circle cx="524.75" cy="661.54" r="14.17" fill="#b8734e"/><circle cx="553.09" cy="661.54" r="14.17" fill="#75230f"/><circle cx="581.44" cy="661.54" r="14.17" fill="#fcca84"/><circle cx="383.01" cy="689.89" r="14.17" fill="#463332"/><circle cx="411.36" cy="689.89" r="14.17" fill="#bb571c"/><circle cx="439.71" cy="689.89" r="14.17" fill="#f49622"/><circle cx="468.05" cy="689.89" r="14.17" fill="#d38e3e"/><circle cx="496.4" cy="689.89" r="14.17" fill="#fdeb89"/><circle cx="411.36" cy="718.24" r="14.17" fill="#b57049"/><circle cx="439.71" cy="718.24" r="14.17" fill="#f3954c"/><circle cx="468.05" cy="718.24" r="14.17" fill="#fee7d1"/><circle cx="496.4" cy="718.24" r="14.17" fill="#a76a2d"/><circle cx="383.01" cy="746.58" r="14.17" fill="#481410"/><circle cx="411.36" cy="746.58" r="14.17" fill="#f6a344"/><circle cx="439.71" cy="746.58" r="14.17" fill="#441312"/><circle cx="468.05" cy="746.58" r="14.17" fill="#c9a9bf"/><circle cx="496.4" cy="746.58" r="14.17" fill="#f39240"/><circle cx="524.75" cy="746.58" r="14.17" fill="#e59752"/><circle cx="383.01" cy="774.93" r="14.17" fill="#2d1011"/><circle cx="411.36" cy="774.93" r="14.17" fill="#772710"/><g fill="#944520"><circle cx="496.4" cy="774.93" r="14.17"/><circle cx="524.75" cy="774.93" r="14.17"/></g><circle cx="553.09" cy="774.93" r="14.17" fill="#b58d70"/></svg>