<svg xmlns="http://www.w3.org/2000/svg" viewBox="0 0 965.45 1332.29" xmlns:v="https://vecta.io/nano"><path d="M142.06 193.8H822.4v680.34H142.06z"/><circle cx="496.4" cy="463.12" r="14.17" fill="#e52922"/><circle cx="524.75" cy="463.12" r="14.17" fill="#a11b17"/><circle cx="553.09" cy="463.12" r="14.17" fill="#d390a9"/><circle cx="468.05" cy="491.46" r="14.17" fill="#dea372"/><circle cx="496.4" cy="491.46" r="14.17" fill="#e84333"/><circle cx="524.75" cy="491.46" r="14.17" fill="#e63223"/><circle cx="553.09" cy="491.46" r="14.17" fill="#e94c62"/><circle cx="581.44" cy="491.46" r="14.17" fill="#d3afba"/><circle cx="468.05" cy="519.81" r="14.17" fill="#891813"/><circle cx="496.4" cy="519.81" r="14.17" fill="#ef7e67"/><circle cx="524.75" cy="519.81" r="14.17" fill="#e73a35"/><circle cx="553.09" cy="519.81" r="14.17" fill="#e63122"/><circle cx="581.44" cy="519.81" r="14.17" fill="#3c1213"/><circle cx="638.13" cy="519.81" r="14.17" fill="#e52522"/><circle cx="383.01" cy="548.16" r="14.17" fill="#ad7e56"/><circle cx="411.36" cy="548.16" r="14.17" fill="#7a1712"/><circle cx="439.71" cy="548.16" r="14.17" fill="#911916"/><circle cx="468.05" cy="548.16" r="14.17" fill="#322"/><circle cx="496.4" cy="548.16" r="14.17" fill="#e63721"/><circle cx="524.75" cy="548.16" r="14.17" fill="#e94f3e"/><circle cx="553.09" cy="548.16" r="14.17" fill="#e63625"/><circle cx="581.44" cy="548.16" r="14.17" fill="#eb5a60"/><circle cx="638.13" cy="548.16" r="14.17" fill="#e52522"/><circle cx="666.48" cy="548.16" r="14.17" fill="#e52622"/><circle cx="326.32" cy="576.5" r="14.17" fill="#c69f8a"/><circle cx="354.67" cy="576.5" r="14.17" fill="#e31c1a"/><circle cx="383.01" cy="576.5" r="14.17" fill="#e8412e"/><circle cx="411.36" cy="576.5" r="14.17" fill="#e73b26"/><circle cx="439.71" cy="576.5" r="14.17" fill="#e52f22"/><circle cx="468.05" cy="576.5" r="14.17" fill="#f1875d"/><circle cx="496.4" cy="576.5" r="14.17" fill="#661610"/><circle cx="524.75" cy="576.5" r="14.17" fill="#e73824"/><circle cx="553.09" cy="576.5" r="14.17" fill="#e73f20"/><circle cx="581.44" cy="576.5" r="14.17" fill="#e8433f"/><circle cx="638.13" cy="576.5" r="14.17" fill="#e52522"/><circle cx="666.48" cy="576.5" r="14.17" fill="#e74120"/><circle cx="694.82" cy="576.5" r="14.17" fill="#e95023"/><circle cx="326.32" cy="604.85" r="14.17" fill="#887164"/><circle cx="354.67" cy="604.85" r="14.17" fill="#e2201f"/><circle cx="383.01" cy="604.85" r="14.17" fill="#e84726"/><circle cx="411.36" cy="604.85" r="14.17" fill="#3f1213"/><circle cx="468.05" cy="604.85" r="14.17" fill="#8f2413"/><circle cx="496.4" cy="604.85" r="14.17" fill="#feecbf"/><circle cx="524.75" cy="604.85" r="14.17" fill="#761610"/><circle cx="553.09" cy="604.85" r="14.17" fill="#531413"/><circle cx="638.13" cy="604.85" r="14.17" fill="#e52622"/><circle cx="666.48" cy="604.85" r="14.17" fill="#fec709"/><circle cx="694.82" cy="604.85" r="14.17" fill="#e52522"/><circle cx="326.32" cy="633.2" r="14.17" fill="#637c73"/><circle cx="354.67" cy="633.2" r="14.17" fill="#a48791"/><circle cx="411.36" cy="633.2" r="14.17" fill="#826a7f"/><circle cx="439.71" cy="633.2" r="14.17" fill="#a02b2a"/><circle cx="468.05" cy="633.2" r="14.17" fill="#e52b21"/><circle cx="496.4" cy="633.2" r="14.17" fill="#e84527"/><circle cx="524.75" cy="633.2" r="14.17" fill="#e73926"/><circle cx="553.09" cy="633.2" r="14.17" fill="#c51819"/><circle cx="638.13" cy="633.2" r="14.17" fill="#f59d1a"/><circle cx="666.48" cy="633.2" r="14.17" fill="#ffcd03"/><circle cx="694.82" cy="633.2" r="14.17" fill="#e95023"/><circle cx="411.36" cy="661.54" r="14.17" fill="#e63724"/><circle cx="439.71" cy="661.54" r="14.17" fill="#7a1712"/><circle cx="468.05" cy="661.54" r="14.17" fill="#e94b30"/><circle cx="496.4" cy="661.54" r="14.17" fill="#ee7364"/><circle cx="524.75" cy="661.54" r="14.17" fill="#7a1712"/><circle cx="553.09" cy="661.54" r="14.17" fill="#c43b18"/><circle cx="609.79" cy="661.54" r="14.17" fill="#61140f"/><circle cx="638.13" cy="661.54" r="14.17" fill="#e52f22"/><circle cx="666.48" cy="661.54" r="14.17" fill="#4f1710"/><circle cx="383.01" cy="689.89" r="14.17" fill="#e84527"/><circle cx="411.36" cy="689.89" r="14.17" fill="#e73f22"/><circle cx="439.71" cy="689.89" r="14.17" fill="#e62e23"/><circle cx="468.05" cy="689.89" r="14.17" fill="#fccd90"/><circle cx="496.4" cy="689.89" r="14.17" fill="#fbcb9a"/><circle cx="524.75" cy="689.89" r="14.17" fill="#f18f81"/><circle cx="553.09" cy="689.89" r="14.17" fill="#ea5366"/><circle cx="581.44" cy="689.89" r="14.17" fill="#e52f22"/><circle cx="609.79" cy="689.89" r="14.17" fill="#e52b21"/><circle cx="354.67" cy="718.24" r="14.17" fill="#7e7f80"/><circle cx="383.01" cy="718.24" r="14.17" fill="#e73d23"/><circle cx="411.36" cy="718.24" r="14.17" fill="#e83c49"/><circle cx="439.71" cy="718.24" r="14.17" fill="#ea5271"/><circle cx="468.05" cy="718.24" r="14.17" fill="#322"/><circle cx="496.4" cy="718.24" r="14.17" fill="#581412"/><circle cx="524.75" cy="718.24" r="14.17" fill="#e53121"/><circle cx="553.09" cy="718.24" r="14.17" fill="#e7373c"/><circle cx="354.67" cy="746.58" r="14.17" fill="#322"/><circle cx="383.01" cy="746.58" r="14.17" fill="#e52722"/><circle cx="411.36" cy="746.58" r="14.17" fill="#e94640"/><circle cx="439.71" cy="746.58" r="14.17" fill="#e8442f"/><circle cx="468.05" cy="746.58" r="14.17" fill="#322"/><circle cx="496.4" cy="746.58" r="14.17" fill="#df0917"/><circle cx="524.75" cy="746.58" r="14.17" fill="#e52522"/><circle cx="553.09" cy="746.58" r="14.17" fill="#e73921"/><circle cx="581.44" cy="746.58" r="14.17" fill="#322"/><circle cx="326.32" cy="774.93" r="14.17" fill="#979290"/><circle cx="354.67" cy="774.93" r="14.17" fill="#73160e"/><circle cx="383.01" cy="774.93" r="14.17" fill="#e63821"/><circle cx="411.36" cy="774.93" r="14.17" fill="#631410"/><circle cx="496.4" cy="774.93" r="14.17" fill="#4b1511"/><circle cx="524.75" cy="774.93" r="14.17" fill="#e94a2c"/><circle cx="553.09" cy="774.93" r="14.17" fill="#401311"/><circle cx="354.67" cy="803.28" r="14.17" fill="#2e321c"/><circle cx="383.01" cy="803.28" r="14.17" fill="#453d4c"/></svg>