<svg xmlns="http://www.w3.org/2000/svg" viewBox="0 0 965.45 1332.29" xmlns:v="https://vecta.io/nano"><path d="M142.06 193.8H822.4v680.34H142.06z"/><circle cx="354.67" cy="406.42" r="14.17" fill="#eb5946"/><circle cx="524.75" cy="406.42" r="14.17" fill="#886e4e"/><circle cx="553.09" cy="406.42" r="14.17" fill="#783c18"/><circle cx="326.32" cy="434.77" r="14.17" fill="#e95226"/><circle cx="468.05" cy="434.77" r="14.17" fill="#d96313"/><circle cx="496.4" cy="434.77" r="14.17" fill="#2a0f10"/><circle cx="524.75" cy="434.77" r="14.17" fill="#ec661f"/><circle cx="666.48" cy="434.77" r="14.17" fill="#a59169"/><circle cx="297.97" cy="463.12" r="14.17" fill="#e52722"/><g fill="#f18537"><circle cx="411.36" cy="463.12" r="14.17"/><circle cx="439.71" cy="463.12" r="14.17"/></g><circle cx="468.05" cy="463.12" r="14.17" fill="#007084"/><circle cx="496.4" cy="463.12" r="14.17" fill="#068d97"/><circle cx="524.75" cy="463.12" r="14.17" fill="#f1861c"/><circle cx="581.44" cy="463.12" r="14.17" fill="#735b46"/><circle cx="666.48" cy="463.12" r="14.17" fill="#f4981f"/><circle cx="694.82" cy="463.12" r="14.17" fill="#daaf8d"/><circle cx="269.63" cy="491.46" r="14.17" fill="#e52922"/><circle cx="297.97" cy="491.46" r="14.17" fill="#e52522"/><circle cx="326.32" cy="491.46" r="14.17" fill="#e63622"/><circle cx="383.01" cy="491.46" r="14.17" fill="#915619"/><circle cx="411.36" cy="491.46" r="14.17" fill="#ef7b1a"/><circle cx="439.71" cy="491.46" r="14.17" fill="#007073"/><circle cx="468.05" cy="491.46" r="14.17" fill="#1cb9da"/><circle cx="496.4" cy="491.46" r="14.17" fill="#1cb2e8"/><circle cx="524.75" cy="491.46" r="14.17" fill="#aa8740"/><g fill="#a25617"><circle cx="553.09" cy="491.46" r="14.17"/><circle cx="581.44" cy="491.46" r="14.17"/></g><circle cx="609.79" cy="491.46" r="14.17" fill="#764314"/><circle cx="638.13" cy="491.46" r="14.17" fill="#c68f60"/><circle cx="666.48" cy="491.46" r="14.17" fill="#b43918"/><circle cx="694.82" cy="491.46" r="14.17" fill="#3d1610"/><circle cx="269.63" cy="519.81" r="14.17" fill="#e52722"/><circle cx="297.97" cy="519.81" r="14.17" fill="#e52922"/><circle cx="326.32" cy="519.81" r="14.17" fill="#e52a21"/><circle cx="354.67" cy="519.81" r="14.17" fill="#b75c2d"/><circle cx="383.01" cy="519.81" r="14.17" fill="#ee721e"/><circle cx="411.36" cy="519.81" r="14.17" fill="#023b25"/><circle cx="439.71" cy="519.81" r="14.17" fill="#2cb9d3"/><circle cx="468.05" cy="519.81" r="14.17" fill="#43bbc3"/><circle cx="496.4" cy="519.81" r="14.17" fill="#00b6d7"/><circle cx="524.75" cy="519.81" r="14.17" fill="#d97633"/><circle cx="553.09" cy="519.81" r="14.17" fill="#e84b19"/><circle cx="581.44" cy="519.81" r="14.17" fill="#b44718"/><circle cx="609.79" cy="519.81" r="14.17" fill="#e07d16"/><circle cx="638.13" cy="519.81" r="14.17" fill="#391112"/><circle cx="666.48" cy="519.81" r="14.17" fill="#753110"/><circle cx="694.82" cy="519.81" r="14.17" fill="#da8953"/><circle cx="269.63" cy="548.16" r="14.17" fill="#e52a21"/><circle cx="297.97" cy="548.16" r="14.17" fill="#ef7a1c"/><circle cx="326.32" cy="548.16" r="14.17" fill="#76a8bc"/><circle cx="354.67" cy="548.16" r="14.17" fill="#e75215"/><circle cx="383.01" cy="548.16" r="14.17" fill="#ee751f"/><circle cx="411.36" cy="548.16" r="14.17" fill="#00a0c2"/><circle cx="439.71" cy="548.16" r="14.17" fill="#5ac3e7"/><circle cx="468.05" cy="548.16" r="14.17" fill="#24b3ad"/><circle cx="496.4" cy="548.16" r="14.17" fill="#a4841f"/><circle cx="524.75" cy="548.16" r="14.17" fill="#f18917"/><circle cx="553.09" cy="548.16" r="14.17" fill="#f49720"/><circle cx="581.44" cy="548.16" r="14.17" fill="#f08019"/><circle cx="609.79" cy="548.16" r="14.17" fill="#f6a226"/><circle cx="638.13" cy="548.16" r="14.17" fill="#e95810"/><circle cx="666.48" cy="548.16" r="14.17" fill="#143f4b"/><circle cx="694.82" cy="548.16" r="14.17" fill="#c28d37"/><circle cx="269.63" cy="576.5" r="14.17" fill="#e52f22"/><circle cx="297.97" cy="576.5" r="14.17" fill="#f4e72d"/><circle cx="326.32" cy="576.5" r="14.17" fill="#ec6231"/><circle cx="354.67" cy="576.5" r="14.17" fill="#ee751e"/><circle cx="383.01" cy="576.5" r="14.17" fill="#332828"/><circle cx="411.36" cy="576.5" r="14.17" fill="#5fc4e4"/><circle cx="439.71" cy="576.5" r="14.17" fill="#004f5c"/><circle cx="468.05" cy="576.5" r="14.17" fill="#fab736"/><circle cx="496.4" cy="576.5" r="14.17" fill="#f1841b"/><circle cx="524.75" cy="576.5" r="14.17" fill="#f4972d"/><circle cx="553.09" cy="576.5" r="14.17" fill="#49281a"/><circle cx="581.44" cy="576.5" r="14.17" fill="#f59a23"/><circle cx="609.79" cy="576.5" r="14.17" fill="#f9af31"/><circle cx="638.13" cy="576.5" r="14.17" fill="#fbb922"/><circle cx="666.48" cy="576.5" r="14.17" fill="#003c3e"/><circle cx="694.82" cy="576.5" r="14.17" fill="#ca975a"/><circle cx="297.97" cy="604.85" r="14.17" fill="#d85015"/><circle cx="326.32" cy="604.85" r="14.17" fill="#961916"/><circle cx="354.67" cy="604.85" r="14.17" fill="#ef7b23"/><circle cx="383.01" cy="604.85" r="14.17" fill="#09b1e7"/><circle cx="411.36" cy="604.85" r="14.17" fill="#004a3d"/><circle cx="439.71" cy="604.85" r="14.17" fill="#f4981f"/><circle cx="468.05" cy="604.85" r="14.17" fill="#9b1917"/><circle cx="496.4" cy="604.85" r="14.17" fill="#f7a727"/><circle cx="524.75" cy="604.85" r="14.17" fill="#f6a029"/><circle cx="553.09" cy="604.85" r="14.17" fill="#f28d1b"/><circle cx="581.44" cy="604.85" r="14.17" fill="#ef791c"/><circle cx="609.79" cy="604.85" r="14.17" fill="#f28a29"/><circle cx="666.48" cy="604.85" r="14.17" fill="#17a1dc"/><circle cx="694.82" cy="604.85" r="14.17" fill="#232316"/><circle cx="297.97" cy="633.2" r="14.17" fill="#8d3614"/><circle cx="326.32" cy="633.2" r="14.17" fill="#f28a2c"/><circle cx="354.67" cy="633.2" r="14.17" fill="#a74917"/><circle cx="383.01" cy="633.2" r="14.17" fill="#00828a"/><circle cx="411.36" cy="633.2" r="14.17" fill="#b07214"/><circle cx="439.71" cy="633.2" r="14.17" fill="#fbb82e"/><circle cx="468.05" cy="633.2" r="14.17" fill="#cd4717"/><circle cx="496.4" cy="633.2" r="14.17" fill="#f7a73e"/><circle cx="524.75" cy="633.2" r="14.17" fill="#dc5513"/><circle cx="553.09" cy="633.2" r="14.17" fill="#f29018"/><circle cx="581.44" cy="633.2" r="14.17" fill="#f0811a"/><circle cx="609.79" cy="633.2" r="14.17" fill="#f6a33c"/><circle cx="638.13" cy="633.2" r="14.17" fill="#31b8c2"/><circle cx="666.48" cy="633.2" r="14.17" fill="#11a9dd"/><circle cx="694.82" cy="633.2" r="14.17" fill="#292115"/><circle cx="326.32" cy="661.54" r="14.17" fill="#ee751e"/><circle cx="354.67" cy="661.54" r="14.17" fill="#f6a13d"/><circle cx="383.01" cy="661.54" r="14.17" fill="#332828"/><circle cx="411.36" cy="661.54" r="14.17" fill="#f08124"/><circle cx="439.71" cy="661.54" r="14.17" fill="#f4981b"/><circle cx="468.05" cy="661.54" r="14.17" fill="#f69f24"/><circle cx="496.4" cy="661.54" r="14.17" fill="#fac479"/><circle cx="524.75" cy="661.54" r="14.17" fill="#fccd87"/><circle cx="553.09" cy="661.54" r="14.17" fill="#ef7c1a"/><circle cx="581.44" cy="661.54" r="14.17" fill="#f1881b"/><circle cx="609.79" cy="661.54" r="14.17" fill="#332828"/><circle cx="638.13" cy="661.54" r="14.17" fill="#47c1ef"/><circle cx="666.48" cy="661.54" r="14.17" fill="#3bbdef"/><circle cx="694.82" cy="661.54" r="14.17" fill="#2c1e13"/><circle cx="326.32" cy="689.89" r="14.17" fill="#332828"/><circle cx="354.67" cy="689.89" r="14.17" fill="#dc6114"/><circle cx="383.01" cy="689.89" r="14.17" fill="#f08329"/><circle cx="411.36" cy="689.89" r="14.17" fill="#ee731e"/><circle cx="439.71" cy="689.89" r="14.17" fill="#6e160e"/><circle cx="468.05" cy="689.89" r="14.17" fill="#e95613"/><circle cx="496.4" cy="689.89" r="14.17" fill="#5a4417"/><circle cx="524.75" cy="689.89" r="14.17" fill="#c8b57f"/><circle cx="553.09" cy="689.89" r="14.17" fill="#ffe37f"/><circle cx="581.44" cy="689.89" r="14.17" fill="#786a3e"/><circle cx="609.79" cy="689.89" r="14.17" fill="#dc9144"/><circle cx="638.13" cy="689.89" r="14.17" fill="#008481"/><circle cx="666.48" cy="689.89" r="14.17" fill="#5cc4e5"/><circle cx="694.82" cy="689.89" r="14.17" fill="#002d33"/><circle cx="354.67" cy="718.24" r="14.17" fill="#8b1e13"/><circle cx="383.01" cy="718.24" r="14.17" fill="#ef7a1c"/><circle cx="411.36" cy="718.24" r="14.17" fill="#f3911a"/><circle cx="439.71" cy="718.24" r="14.17" fill="#f28921"/><circle cx="468.05" cy="718.24" r="14.17" fill="#804d15"/><circle cx="496.4" cy="718.24" r="14.17" fill="#f9f5be"/><g fill="#feea64"><circle cx="524.75" cy="718.24" r="14.17"/><circle cx="553.09" cy="718.24" r="14.17"/></g><circle cx="581.44" cy="718.24" r="14.17" fill="#f8f4bb"/><circle cx="609.79" cy="718.24" r="14.17" fill="#f2982a"/><circle cx="638.13" cy="718.24" r="14.17" fill="#bd8731"/><circle cx="666.48" cy="718.24" r="14.17" fill="#67a893"/><circle cx="694.82" cy="718.24" r="14.17" fill="#332828"/><circle cx="354.67" cy="746.58" r="14.17" fill="#f28e23"/><circle cx="383.01" cy="746.58" r="14.17" fill="#ef791c"/><circle cx="411.36" cy="746.58" r="14.17" fill="#f7a522"/><circle cx="439.71" cy="746.58" r="14.17" fill="#f8b04b"/><circle cx="468.05" cy="746.58" r="14.17" fill="#5a190f"/><circle cx="496.4" cy="746.58" r="14.17" fill="#ffe27c"/><circle cx="524.75" cy="746.58" r="14.17" fill="#ffe97f"/><circle cx="553.09" cy="746.58" r="14.17" fill="#fdeb8f"/><circle cx="581.44" cy="746.58" r="14.17" fill="#8c6534"/><circle cx="609.79" cy="746.58" r="14.17" fill="#eb8b40"/><circle cx="638.13" cy="746.58" r="14.17" fill="#b1b1b9"/><circle cx="354.67" cy="774.93" r="14.17" fill="#f08223"/><circle cx="383.01" cy="774.93" r="14.17" fill="#f3931b"/><circle cx="411.36" cy="774.93" r="14.17" fill="#f6a33e"/><circle cx="439.71" cy="774.93" r="14.17" fill="#fecc52"/><circle cx="468.05" cy="774.93" r="14.17" fill="#ffe65d"/><circle cx="496.4" cy="774.93" r="14.17" fill="#ffe565"/><g fill="#ffeb96"><circle cx="524.75" cy="774.93" r="14.17"/><circle cx="553.09" cy="774.93" r="14.17"/></g><circle cx="581.44" cy="774.93" r="14.17" fill="#f28d1a"/><circle cx="609.79" cy="774.93" r="14.17" fill="#ef7e18"/><circle cx="638.13" cy="774.93" r="14.17" fill="#7b712f"/><circle cx="326.32" cy="803.28" r="14.17" fill="#3f2c1a"/><circle cx="354.67" cy="803.28" r="14.17" fill="#f1881b"/><circle cx="383.01" cy="803.28" r="14.17" fill="#f29018"/><circle cx="411.36" cy="803.28" r="14.17" fill="#2f1011"/><circle cx="468.05" cy="803.28" r="14.17" fill="#302817"/><circle cx="496.4" cy="803.28" r="14.17" fill="#362c18"/><circle cx="524.75" cy="803.28" r="14.17" fill="#443919"/><circle cx="553.09" cy="803.28" r="14.17" fill="#f39223"/><circle cx="581.44" cy="803.28" r="14.17" fill="#f28b18"/><circle cx="609.79" cy="803.28" r="14.17" fill="#9d2517"/><circle cx="326.32" cy="831.62" r="14.17" fill="#939494"/><circle cx="411.36" cy="831.62" r="14.17" fill="#413927"/><circle cx="524.75" cy="831.62" r="14.17" fill="#443919"/><circle cx="553.09" cy="831.62" r="14.17" fill="#521910"/><circle cx="581.44" cy="831.62" r="14.17" fill="#f4941e"/><circle cx="609.79" cy="831.62" r="14.17" fill="#323921"/></svg>