<svg xmlns="http://www.w3.org/2000/svg" viewBox="0 0 965.45 1332.29" xmlns:v="https://vecta.io/nano"><path d="M142.06 193.8H822.4v680.34H142.06z"/><circle cx="468.05" cy="491.46" r="14.17" fill="#d0eaf6"/><circle cx="496.4" cy="491.46" r="14.17" fill="#0476aa"/><circle cx="524.75" cy="491.46" r="14.17" fill="#0086a8"/><circle cx="553.09" cy="491.46" r="14.17" fill="#456e9e"/><circle cx="468.05" cy="519.81" r="14.17" fill="#6ec7e1"/><circle cx="496.4" cy="519.81" r="14.17" fill="#69c6e1"/><circle cx="524.75" cy="519.81" r="14.17" fill="#6ac6db"/><circle cx="553.09" cy="519.81" r="14.17" fill="#70c8df"/><circle cx="468.05" cy="548.16" r="14.17" fill="#47c1ee"/><circle cx="496.4" cy="548.16" r="14.17" fill="#306295"/><circle cx="524.75" cy="548.16" r="14.17" fill="#5ac3e6"/><circle cx="553.09" cy="548.16" r="14.17" fill="#264b93"/><circle cx="581.44" cy="548.16" r="14.17" fill="#6a7f85"/><circle cx="439.71" cy="576.5" r="14.17" fill="#78c9d4"/><circle cx="468.05" cy="576.5" r="14.17" fill="#055e6b"/><circle cx="496.4" cy="576.5" r="14.17" fill="#83c6eb"/><circle cx="524.75" cy="576.5" r="14.17" fill="#eb5e66"/><circle cx="553.09" cy="576.5" r="14.17" fill="#48c0e9"/><circle cx="411.36" cy="604.85" r="14.17" fill="#cc8c64"/><circle cx="439.71" cy="604.85" r="14.17" fill="#483946"/><circle cx="468.05" cy="604.85" r="14.17" fill="#1e301d"/><circle cx="496.4" cy="604.85" r="14.17" fill="#a8a78c"/><circle cx="524.75" cy="604.85" r="14.17" fill="#aa7d62"/><circle cx="553.09" cy="604.85" r="14.17" fill="#438596"/><circle cx="581.44" cy="604.85" r="14.17" fill="#b4e0f3"/><circle cx="326.32" cy="633.2" r="14.17" fill="#c1e1e8"/><circle cx="354.67" cy="633.2" r="14.17" fill="#03436c"/><circle cx="411.36" cy="633.2" r="14.17" fill="#d48f78"/><circle cx="439.71" cy="633.2" r="14.17" fill="#6a8273"/><circle cx="468.05" cy="633.2" r="14.17" fill="#5e431d"/><circle cx="496.4" cy="633.2" r="14.17" fill="#edd1a3"/><circle cx="524.75" cy="633.2" r="14.17" fill="#f1d7a9"/><circle cx="553.09" cy="633.2" r="14.17" fill="#565045"/><circle cx="581.44" cy="633.2" r="14.17" fill="#24aeb2"/><circle cx="326.32" cy="661.54" r="14.17" fill="#5dc0c7"/><circle cx="354.67" cy="661.54" r="14.17" fill="#84cee3"/><circle cx="383.01" cy="661.54" r="14.17" fill="#56a4b2"/><circle cx="411.36" cy="661.54" r="14.17" fill="#90575e"/><circle cx="439.71" cy="661.54" r="14.17" fill="#4f4239"/><circle cx="468.05" cy="661.54" r="14.17" fill="#d7c48f"/><circle cx="496.4" cy="661.54" r="14.17" fill="#38282d"/><circle cx="524.75" cy="661.54" r="14.17" fill="#d9c090"/><circle cx="553.09" cy="661.54" r="14.17" fill="#38282d"/><circle cx="581.44" cy="661.54" r="14.17" fill="#6fc9ef"/><circle cx="326.32" cy="689.89" r="14.17" fill="#30afbd"/><circle cx="354.67" cy="689.89" r="14.17" fill="#9ad5e2"/><circle cx="383.01" cy="689.89" r="14.17" fill="#8ad0e3"/><circle cx="411.36" cy="689.89" r="14.17" fill="#22263d"/><circle cx="439.71" cy="689.89" r="14.17" fill="#87cabf"/><circle cx="468.05" cy="689.89" r="14.17" fill="#0d3c20"/><circle cx="496.4" cy="689.89" r="14.17" fill="#e4da98"/><circle cx="524.75" cy="689.89" r="14.17" fill="#f9d9a0"/><circle cx="553.09" cy="689.89" r="14.17" fill="#025350"/><circle cx="383.01" cy="718.24" r="14.17" fill="#47bab9"/><circle cx="411.36" cy="718.24" r="14.17" fill="#30a9cb"/><circle cx="439.71" cy="718.24" r="14.17" fill="#0075b1"/><circle cx="468.05" cy="718.24" r="14.17" fill="#70c8e2"/><circle cx="496.4" cy="718.24" r="14.17" fill="#aec4ac"/><circle cx="468.05" cy="746.58" r="14.17" fill="#022d39"/></svg>