<svg xmlns="http://www.w3.org/2000/svg" viewBox="0 0 965.45 1332.29" xmlns:v="https://vecta.io/nano"><path d="M142.06 193.8H822.4v680.34H142.06z"/><circle cx="524.75" cy="434.77" r="14.17" fill="#535153"/><circle cx="354.67" cy="463.12" r="14.17" fill="#839286"/><circle cx="383.01" cy="463.12" r="14.17" fill="#c4e3da"/><circle cx="411.36" cy="463.12" r="14.17" fill="#a0b5a5"/><circle cx="524.75" cy="463.12" r="14.17" fill="#1b2c25"/><circle cx="553.09" cy="463.12" r="14.17" fill="#a1d3c2"/><circle cx="383.01" cy="491.46" r="14.17" fill="#a7d6d8"/><circle cx="411.36" cy="491.46" r="14.17" fill="#9dd3cc"/><circle cx="439.71" cy="491.46" r="14.17" fill="#303c45"/><circle cx="468.05" cy="491.46" r="14.17" fill="#364891"/><circle cx="496.4" cy="491.46" r="14.17" fill="#4461aa"/><circle cx="524.75" cy="491.46" r="14.17" fill="#6079bb"/><circle cx="553.09" cy="491.46" r="14.17" fill="#3e7290"/><circle cx="581.44" cy="491.46" r="14.17" fill="#babfca"/><circle cx="411.36" cy="519.81" r="14.17" fill="#c2e4ec"/><circle cx="439.71" cy="519.81" r="14.17" fill="#b2deec"/><circle cx="468.05" cy="519.81" r="14.17" fill="#8da4d5"/><circle cx="496.4" cy="519.81" r="14.17" fill="#9fc2e8"/><circle cx="524.75" cy="519.81" r="14.17" fill="#adc7e9"/><circle cx="553.09" cy="519.81" r="14.17" fill="#afceee"/><circle cx="581.44" cy="519.81" r="14.17" fill="#7d88a0"/><circle cx="411.36" cy="548.16" r="14.17" fill="#47676b"/><circle cx="439.71" cy="548.16" r="14.17" fill="#2974a1"/><circle cx="468.05" cy="548.16" r="14.17" fill="#96c3ea"/><circle cx="496.4" cy="548.16" r="14.17" fill="#3a5ba6"/><circle cx="524.75" cy="548.16" r="14.17" fill="#94a0d1"/><circle cx="553.09" cy="548.16" r="14.17" fill="#4754a0"/><circle cx="581.44" cy="548.16" r="14.17" fill="#52659c"/><circle cx="609.79" cy="548.16" r="14.17" fill="#7d928b"/><circle cx="354.67" cy="576.5" r="14.17" fill="#1f3259"/><circle cx="383.01" cy="576.5" r="14.17" fill="#33549c"/><circle cx="439.71" cy="576.5" r="14.17" fill="#2053a0"/><circle cx="468.05" cy="576.5" r="14.17" fill="#8fbae4"/><circle cx="496.4" cy="576.5" r="14.17" fill="#a9aed8"/><circle cx="524.75" cy="576.5" r="14.17" fill="#97b4df"/><circle cx="553.09" cy="576.5" r="14.17" fill="#8f9acd"/><circle cx="581.44" cy="576.5" r="14.17" fill="#1f243a"/><circle cx="609.79" cy="576.5" r="14.17" fill="#cce6ec"/><circle cx="638.13" cy="576.5" r="14.17" fill="#526760"/><circle cx="326.32" cy="604.85" r="14.17" fill="#b8bec4"/><circle cx="354.67" cy="604.85" r="14.17" fill="#acc7e9"/><circle cx="383.01" cy="604.85" r="14.17" fill="#8bb7e3"/><circle cx="411.36" cy="604.85" r="14.17" fill="#757ebc"/><circle cx="439.71" cy="604.85" r="14.17" fill="#2d1a1b"/><circle cx="468.05" cy="604.85" r="14.17" fill="#5b7abb"/><circle cx="496.4" cy="604.85" r="14.17" fill="#6c88c4"/><circle cx="524.75" cy="604.85" r="14.17" fill="#263474"/><circle cx="553.09" cy="604.85" r="14.17" fill="#cdcce7"/><circle cx="581.44" cy="604.85" r="14.17" fill="#f4fafc"/><circle cx="609.79" cy="604.85" r="14.17" fill="#79c3aa"/><circle cx="638.13" cy="604.85" r="14.17" fill="#d8edf3"/><circle cx="354.67" cy="633.2" r="14.17" fill="#7a8fc7"/><circle cx="383.01" cy="633.2" r="14.17" fill="#809bd0"/><circle cx="411.36" cy="633.2" r="14.17" fill="#484a35"/><circle cx="439.71" cy="633.2" r="14.17" fill="#ffeb96"/><circle cx="468.05" cy="633.2" r="14.17" fill="#cdcda4"/><circle cx="496.4" cy="633.2" r="14.17" fill="#6f7578"/><circle cx="524.75" cy="633.2" r="14.17" fill="#1b1e35"/><circle cx="553.09" cy="633.2" r="14.17" fill="#adaea5"/><circle cx="581.44" cy="633.2" r="14.17" fill="#c7ab9f"/><circle cx="609.79" cy="633.2" r="14.17" fill="#fff"/><circle cx="638.13" cy="633.2" r="14.17" fill="#bababa"/><circle cx="383.01" cy="661.54" r="14.17" fill="#575343"/><circle cx="411.36" cy="661.54" r="14.17" fill="#f7f1a1"/><circle cx="439.71" cy="661.54" r="14.17" fill="#58451a"/><circle cx="468.05" cy="661.54" r="14.17" fill="#463417"/><circle cx="496.4" cy="661.54" r="14.17" fill="#9793b6"/><circle cx="524.75" cy="661.54" r="14.17" fill="#748fc9"/><circle cx="553.09" cy="661.54" r="14.17" fill="#80afd5"/><circle cx="581.44" cy="661.54" r="14.17" fill="#94858b"/><circle cx="609.79" cy="661.54" r="14.17" fill="#c0dfd7"/><circle cx="638.13" cy="661.54" r="14.17" fill="#488172"/><circle cx="638.13" cy="689.89" r="14.17" fill="#d4ecf2"/><circle cx="383.01" cy="689.89" r="14.17" fill="#faedeb"/><circle cx="411.36" cy="689.89" r="14.17" fill="#b7ae98"/><circle cx="439.71" cy="689.89" r="14.17" fill="#a39a71"/><circle cx="468.05" cy="689.89" r="14.17" fill="#192542"/><circle cx="496.4" cy="689.89" r="14.17" fill="#7498cf"/><circle cx="524.75" cy="689.89" r="14.17" fill="#91b7e2"/><circle cx="553.09" cy="689.89" r="14.17" fill="#a0b6df"/><circle cx="581.44" cy="689.89" r="14.17" fill="#b2a69e"/><circle cx="609.79" cy="689.89" r="14.17" fill="#98d1c8"/><circle cx="383.01" cy="718.24" r="14.17" fill="#5d7070"/><circle cx="411.36" cy="718.24" r="14.17" fill="#d1e2a3"/><circle cx="439.71" cy="718.24" r="14.17" fill="#8c8a53"/><circle cx="468.05" cy="718.24" r="14.17" fill="#1c2228"/><circle cx="496.4" cy="718.24" r="14.17" fill="#77aadc"/><circle cx="524.75" cy="718.24" r="14.17" fill="#344596"/><circle cx="553.09" cy="718.24" r="14.17" fill="#1f2624"/><circle cx="581.44" cy="718.24" r="14.17" fill="#4d673e"/><circle cx="609.79" cy="718.24" r="14.17" fill="#93d2e4"/><circle cx="638.13" cy="718.24" r="14.17" fill="#5eaca6"/><circle cx="354.67" cy="746.58" r="14.17" fill="#596f96"/><circle cx="383.01" cy="746.58" r="14.17" fill="#6185c3"/><circle cx="411.36" cy="746.58" r="14.17" fill="#4368ad"/><circle cx="439.71" cy="746.58" r="14.17" fill="#020304"/><circle cx="468.05" cy="746.58" r="14.17" fill="#f9f5c1"/><circle cx="496.4" cy="746.58" r="14.17" fill="#fbf4c5"/><circle cx="524.75" cy="746.58" r="14.17" fill="#1d1b3a"/><circle cx="553.09" cy="746.58" r="14.17" fill="#588dca"/><circle cx="581.44" cy="746.58" r="14.17" fill="#191f3b"/><circle cx="609.79" cy="746.58" r="14.17" fill="#13273e"/><circle cx="383.01" cy="774.93" r="14.17" fill="#545e68"/><circle cx="411.36" cy="774.93" r="14.17" fill="#878894"/><circle cx="524.75" cy="774.93" r="14.17" fill="#759cd2"/><circle cx="553.09" cy="774.93" r="14.17" fill="#8cafdd"/><circle cx="581.44" cy="774.93" r="14.17" fill="#7685c0"/><circle cx="553.09" cy="803.28" r="14.17" fill="#a9b8d7"/><circle cx="581.44" cy="803.28" r="14.17" fill="#9da7bf"/></svg>