<svg xmlns="http://www.w3.org/2000/svg" viewBox="0 0 965.45 1332.29" xmlns:v="https://vecta.io/nano"><path d="M142.06 193.8H822.4v680.34H142.06z"/><circle cx="411.36" cy="406.42" r="14.17" fill="#8ccbf1"/><circle cx="439.71" cy="406.42" r="14.17" fill="#22315d"/><circle cx="468.05" cy="406.42" r="14.17" fill="#637272"/><circle cx="496.4" cy="406.42" r="14.17" fill="#52849d"/><circle cx="524.75" cy="406.42" r="14.17" fill="#adddf4"/><circle cx="553.09" cy="406.42" r="14.17" fill="#7cbde9"/><circle cx="581.44" cy="406.42" r="14.17" fill="#192441"/><circle cx="354.67" cy="434.77" r="14.17" fill="#242424"/><circle cx="383.01" cy="434.77" r="14.17" fill="#f7f9f2"/><circle cx="411.36" cy="434.77" r="14.17" fill="#1a1f21"/><circle cx="439.71" cy="434.77" r="14.17" fill="#3191cf"/><circle cx="468.05" cy="434.77" r="14.17" fill="#709bd2"/><circle cx="496.4" cy="434.77" r="14.17" fill="#e9f5f8"/><circle cx="524.75" cy="434.77" r="14.17" fill="#bcd2e9"/><circle cx="553.09" cy="434.77" r="14.17" fill="#5084c4"/><circle cx="581.44" cy="434.77" r="14.17" fill="#064a99"/><circle cx="609.79" cy="434.77" r="14.17" fill="#4d505c"/><circle cx="326.32" cy="463.12" r="14.17" fill="#6e7283"/><circle cx="354.67" cy="463.12" r="14.17" fill="#21212d"/><circle cx="383.01" cy="463.12" r="14.17" fill="#afb8a6"/><circle cx="411.36" cy="463.12" r="14.17" fill="#a48054"/><circle cx="439.71" cy="463.12" r="14.17" fill="#5aa9de"/><circle cx="468.05" cy="463.12" r="14.17" fill="#4789c8"/><circle cx="496.4" cy="463.12" r="14.17" fill="#4b96d1"/><circle cx="524.75" cy="463.12" r="14.17" fill="#67bcea"/><circle cx="553.09" cy="463.12" r="14.17" fill="#63bbea"/><circle cx="581.44" cy="463.12" r="14.17" fill="#6ac8f1"/><circle cx="609.79" cy="463.12" r="14.17" fill="#98caee"/><circle cx="638.13" cy="463.12" r="14.17" fill="#191e30"/><circle cx="666.48" cy="463.12" r="14.17" fill="#6a8d8e"/><circle cx="666.48" cy="491.46" r="14.17" fill="#fff"/><circle cx="297.97" cy="491.46" r="14.17" fill="#877561"/><circle cx="326.32" cy="491.46" r="14.17" fill="#6c5388"/><circle cx="354.67" cy="491.46" r="14.17" fill="#adaed8"/><circle cx="383.01" cy="491.46" r="14.17" fill="#edf7fa"/><circle cx="411.36" cy="491.46" r="14.17" fill="#1d1e26"/><circle cx="439.71" cy="491.46" r="14.17" fill="#a6c0e5"/><circle cx="468.05" cy="491.46" r="14.17" fill="#7cc2ec"/><circle cx="496.4" cy="491.46" r="14.17" fill="#89c3ec"/><circle cx="524.75" cy="491.46" r="14.17" fill="#004b76"/><circle cx="553.09" cy="491.46" r="14.17" fill="#55554d"/><circle cx="581.44" cy="491.46" r="14.17" fill="#8ca5bf"/><circle cx="609.79" cy="491.46" r="14.17" fill="#8eb6e2"/><circle cx="638.13" cy="491.46" r="14.17" fill="#233250"/><circle cx="269.63" cy="519.81" r="14.17" fill="#fef9fb"/><circle cx="297.97" cy="519.81" r="14.17" fill="#ad7d35"/><circle cx="326.32" cy="519.81" r="14.17" fill="#613d22"/><circle cx="354.67" cy="519.81" r="14.17" fill="#516b77"/><circle cx="383.01" cy="519.81" r="14.17" fill="#c7c9dd"/><circle cx="411.36" cy="519.81" r="14.17" fill="#fefaf9"/><circle cx="439.71" cy="519.81" r="14.17" fill="#cdcfbc"/><circle cx="468.05" cy="519.81" r="14.17" fill="#a6af98"/><circle cx="496.4" cy="519.81" r="14.17" fill="#f3c28f"/><circle cx="524.75" cy="519.81" r="14.17" fill="#fabd67"/><circle cx="553.09" cy="519.81" r="14.17" fill="#ffdd76"/><circle cx="581.44" cy="519.81" r="14.17" fill="#fdd38b"/><circle cx="609.79" cy="519.81" r="14.17" fill="#1b2028"/><circle cx="638.13" cy="519.81" r="14.17" fill="#e4e5f4"/><circle cx="666.48" cy="519.81" r="14.17" fill="#d4d0df"/><circle cx="269.63" cy="548.16" r="14.17" fill="#9b8074"/><circle cx="297.97" cy="548.16" r="14.17" fill="#a25f1b"/><circle cx="326.32" cy="548.16" r="14.17" fill="#db985b"/><circle cx="354.67" cy="548.16" r="14.17" fill="#1b2026"/><circle cx="383.01" cy="548.16" r="14.17" fill="#22272b"/><circle cx="411.36" cy="548.16" r="14.17" fill="#1b2026"/><circle cx="439.71" cy="548.16" r="14.17" fill="#cbdde5"/><circle cx="468.05" cy="548.16" r="14.17" fill="#181f2d"/><circle cx="496.4" cy="548.16" r="14.17" fill="#654b31"/><circle cx="524.75" cy="548.16" r="14.17" fill="#af9050"/><circle cx="553.09" cy="548.16" r="14.17" fill="#b79f5a"/><circle cx="581.44" cy="548.16" r="14.17" fill="#1e2328"/><circle cx="609.79" cy="548.16" r="14.17" fill="#61371a"/><circle cx="638.13" cy="548.16" r="14.17" fill="#c5c0e1"/><circle cx="666.48" cy="548.16" r="14.17" fill="#231d3a"/><circle cx="269.63" cy="576.5" r="14.17" fill="#735c51"/><circle cx="297.97" cy="576.5" r="14.17" fill="#a1581b"/><circle cx="326.32" cy="576.5" r="14.17" fill="#c47f34"/><circle cx="354.67" cy="576.5" r="14.17" fill="#8c6a40"/><circle cx="383.01" cy="576.5" r="14.17" fill="#0d1723"/><circle cx="411.36" cy="576.5" r="14.17" fill="#182c49"/><circle cx="439.71" cy="576.5" r="14.17" fill="#e3ecf9"/><circle cx="468.05" cy="576.5" r="14.17" fill="#f1e8f4"/><circle cx="496.4" cy="576.5" r="14.17" fill="#d5b793"/><circle cx="524.75" cy="576.5" r="14.17" fill="#ecc26a"/><circle cx="553.09" cy="576.5" r="14.17" fill="#fcd57f"/><circle cx="581.44" cy="576.5" r="14.17" fill="#e6bf66"/><circle cx="609.79" cy="576.5" r="14.17" fill="#fedf73"/><circle cx="638.13" cy="576.5" r="14.17" fill="#feecb6"/><circle cx="666.48" cy="576.5" r="14.17" fill="#d6cfcf"/><circle cx="269.63" cy="604.85" r="14.17" fill="#fdfceb"/><circle cx="297.97" cy="604.85" r="14.17" fill="#b06d3c"/><circle cx="326.32" cy="604.85" r="14.17" fill="#a6681d"/><circle cx="354.67" cy="604.85" r="14.17" fill="#ba9a6c"/><circle cx="383.01" cy="604.85" r="14.17" fill="#6194ce"/><circle cx="411.36" cy="604.85" r="14.17" fill="#275ea9"/><circle cx="439.71" cy="604.85" r="14.17" fill="#7abde9"/><circle cx="468.05" cy="604.85" r="14.17" fill="#bdcfde"/><circle cx="496.4" cy="604.85" r="14.17" fill="#060506"/><circle cx="524.75" cy="604.85" r="14.17" fill="#d1b275"/><circle cx="553.09" cy="604.85" r="14.17" fill="#ffdb7b"/><circle cx="581.44" cy="604.85" r="14.17" fill="#ffe495"/><circle cx="609.79" cy="604.85" r="14.17" fill="#fcf190"/><circle cx="638.13" cy="604.85" r="14.17" fill="#c38a39"/><circle cx="666.48" cy="604.85" r="14.17" fill="#50252c"/><circle cx="694.82" cy="604.85" r="14.17" fill="#313e4d"/><circle cx="269.63" cy="633.2" r="14.17" fill="#726b59"/><circle cx="297.97" cy="633.2" r="14.17" fill="#592d1a"/><circle cx="326.32" cy="633.2" r="14.17" fill="#574435"/><circle cx="354.67" cy="633.2" r="14.17" fill="#182026"/><circle cx="383.01" cy="633.2" r="14.17" fill="#285ca7"/><circle cx="411.36" cy="633.2" r="14.17" fill="#437cbf"/><circle cx="439.71" cy="633.2" r="14.17" fill="#86c8ef"/><circle cx="468.05" cy="633.2" r="14.17" fill="#1f3a6f"/><circle cx="496.4" cy="633.2" r="14.17" fill="#efd191"/><circle cx="524.75" cy="633.2" r="14.17" fill="#f3b878"/><circle cx="553.09" cy="633.2" r="14.17" fill="#fed079"/><circle cx="581.44" cy="633.2" r="14.17" fill="#fbcf79"/><circle cx="609.79" cy="633.2" r="14.17" fill="#fbc874"/><circle cx="638.13" cy="633.2" r="14.17" fill="#fbcd79"/><circle cx="666.48" cy="633.2" r="14.17" fill="#ffe081"/><circle cx="694.82" cy="633.2" r="14.17" fill="#91b5e0"/><circle cx="269.63" cy="661.54" r="14.17" fill="#6e6966"/><circle cx="297.97" cy="661.54" r="14.17" fill="#b58263"/><circle cx="326.32" cy="661.54" r="14.17" fill="#503b3a"/><circle cx="354.67" cy="661.54" r="14.17" fill="#16385e"/><circle cx="383.01" cy="661.54" r="14.17" fill="#5ea1d8"/><circle cx="411.36" cy="661.54" r="14.17" fill="#6ec5f0"/><circle cx="439.71" cy="661.54" r="14.17" fill="#4682c3"/><circle cx="468.05" cy="661.54" r="14.17" fill="#131428"/><circle cx="496.4" cy="661.54" r="14.17" fill="#3c2213"/><circle cx="524.75" cy="661.54" r="14.17" fill="#fed178"/><circle cx="553.09" cy="661.54" r="14.17" fill="#fcca76"/><circle cx="581.44" cy="661.54" r="14.17" fill="#fed985"/><circle cx="609.79" cy="661.54" r="14.17" fill="#ffe58a"/><circle cx="638.13" cy="661.54" r="14.17" fill="#fcf29d"/><circle cx="666.48" cy="661.54" r="14.17" fill="#8e6e16"/><circle cx="694.82" cy="661.54" r="14.17" fill="#6f94cd"/><circle cx="723.17" cy="661.54" r="14.17" fill="#b6d1ce"/><circle cx="297.97" cy="689.89" r="14.17" fill="#624527"/><circle cx="326.32" cy="689.89" r="14.17" fill="#c48c75"/><circle cx="354.67" cy="689.89" r="14.17" fill="#edd5bb"/><circle cx="383.01" cy="689.89" r="14.17" fill="#1b3c70"/><circle cx="411.36" cy="689.89" r="14.17" fill="#4d7abd"/><circle cx="439.71" cy="689.89" r="14.17" fill="#cfeafb"/><circle cx="468.05" cy="689.89" r="14.17" fill="#181932"/><circle cx="496.4" cy="689.89" r="14.17" fill="#02569b"/><circle cx="524.75" cy="689.89" r="14.17" fill="#deceb0"/><circle cx="553.09" cy="689.89" r="14.17" fill="#edb969"/><circle cx="581.44" cy="689.89" r="14.17" fill="#e0ad6f"/><circle cx="609.79" cy="689.89" r="14.17" fill="#e3b96e"/><circle cx="638.13" cy="689.89" r="14.17" fill="#f4c17f"/><circle cx="666.48" cy="689.89" r="14.17" fill="#fcef96"/><circle cx="694.82" cy="689.89" r="14.17" fill="#99a8c6"/><circle cx="723.17" cy="689.89" r="14.17" fill="#76a8bc"/><circle cx="297.97" cy="718.24" r="14.17" fill="#a78f83"/><circle cx="326.32" cy="718.24" r="14.17" fill="#582a1f"/><circle cx="354.67" cy="718.24" r="14.17" fill="#8b7a5c"/><circle cx="383.01" cy="718.24" r="14.17" fill="#172733"/><circle cx="411.36" cy="718.24" r="14.17" fill="#c7e5f7"/><circle cx="439.71" cy="718.24" r="14.17" fill="#c5e1f4"/><circle cx="468.05" cy="718.24" r="14.17" fill="#242c5a"/><circle cx="496.4" cy="718.24" r="14.17" fill="#5db9e9"/><circle cx="524.75" cy="718.24" r="14.17" fill="#96bce5"/><circle cx="553.09" cy="718.24" r="14.17" fill="#efc286"/><circle cx="581.44" cy="718.24" r="14.17" fill="#fdcf87"/><circle cx="609.79" cy="718.24" r="14.17" fill="#ffdd80"/><circle cx="638.13" cy="718.24" r="14.17" fill="#fdcf7c"/><circle cx="666.48" cy="718.24" r="14.17" fill="#71b7e6"/><circle cx="326.32" cy="746.58" r="14.17" fill="#2b1716"/><circle cx="354.67" cy="746.58" r="14.17" fill="#1e2225"/><circle cx="383.01" cy="746.58" r="14.17" fill="#b6d5f1"/><circle cx="411.36" cy="746.58" r="14.17" fill="#c2dbf2"/><circle cx="439.71" cy="746.58" r="14.17" fill="#bad0ee"/><circle cx="468.05" cy="746.58" r="14.17" fill="#4c90cc"/><circle cx="496.4" cy="746.58" r="14.17" fill="#63b8e8"/><circle cx="524.75" cy="746.58" r="14.17" fill="#97cef0"/><circle cx="553.09" cy="746.58" r="14.17" fill="#cfc8a2"/><circle cx="581.44" cy="746.58" r="14.17" fill="#fdcc78"/><circle cx="609.79" cy="746.58" r="14.17" fill="#f5c4ab"/><circle cx="638.13" cy="746.58" r="14.17" fill="#184f71"/><circle cx="354.67" cy="774.93" r="14.17" fill="#7a8380"/><circle cx="383.01" cy="774.93" r="14.17" fill="#161f37"/><circle cx="411.36" cy="774.93" r="14.17" fill="#3e5869"/><circle cx="439.71" cy="774.93" r="14.17" fill="#1b1f30"/><circle cx="468.05" cy="774.93" r="14.17" fill="#579bd4"/><circle cx="496.4" cy="774.93" r="14.17" fill="#70b0e1"/><circle cx="524.75" cy="774.93" r="14.17" fill="#0d5a89"/><circle cx="553.09" cy="774.93" r="14.17" fill="#4d564d"/><circle cx="581.44" cy="774.93" r="14.17" fill="#20201b"/><circle cx="609.79" cy="774.93" r="14.17" fill="#0e6ba7"/><circle cx="638.13" cy="774.93" r="14.17" fill="#97d6f4"/><circle cx="666.48" cy="774.93" r="14.17" fill="#cee0ef"/><circle cx="354.67" cy="803.28" r="14.17" fill="#878787"/><circle cx="383.01" cy="803.28" r="14.17" fill="#999"/><circle cx="411.36" cy="803.28" r="14.17" fill="#062b34"/><circle cx="439.71" cy="803.28" r="14.17" fill="#718686"/><circle cx="468.05" cy="803.28" r="14.17" fill="#2a4860"/><circle cx="496.4" cy="803.28" r="14.17" fill="#daeef2"/><circle cx="609.79" cy="803.28" r="14.17" fill="#f2f3f3"/><circle cx="638.13" cy="803.28" r="14.17" fill="#1f1f26"/><circle cx="666.48" cy="803.28" r="14.17" fill="#252b31"/><circle cx="439.71" cy="831.62" r="14.17" fill="#1f2018"/></svg>