<svg xmlns="http://www.w3.org/2000/svg" viewBox="0 0 965.45 1332.29" xmlns:v="https://vecta.io/nano"><path d="M142.06 193.8H822.4v680.34H142.06z"/><circle cx="439.71" cy="519.81" r="14.17" fill="#39a336"/><circle cx="468.05" cy="519.81" r="14.17" fill="#618c47"/><circle cx="496.4" cy="519.81" r="14.17" fill="#868024"/><circle cx="524.75" cy="519.81" r="14.17" fill="#5eb144"/><circle cx="553.09" cy="519.81" r="14.17" fill="#301313"/><circle cx="411.36" cy="548.16" r="14.17" fill="#354d2f"/><circle cx="439.71" cy="548.16" r="14.17" fill="#3ba336"/><circle cx="468.05" cy="548.16" r="14.17" fill="#212e1b"/><circle cx="496.4" cy="548.16" r="14.17" fill="#472d16"/><circle cx="524.75" cy="548.16" r="14.17" fill="#725e17"/><circle cx="553.09" cy="548.16" r="14.17" fill="#6c362d"/><circle cx="411.36" cy="576.5" r="14.17" fill="#8ca752"/><circle cx="439.71" cy="576.5" r="14.17" fill="#7dbb4c"/><circle cx="468.05" cy="576.5" r="14.17" fill="#43722e"/><circle cx="496.4" cy="576.5" r="14.17" fill="#2a8736"/><circle cx="524.75" cy="576.5" r="14.17" fill="#287431"/><circle cx="553.09" cy="576.5" r="14.17" fill="#6d9c79"/><circle cx="354.67" cy="604.85" r="14.17" fill="#544b2a"/><circle cx="411.36" cy="604.85" r="14.17" fill="#28391d"/><circle cx="439.71" cy="604.85" r="14.17" fill="#8ebf2d"/><circle cx="468.05" cy="604.85" r="14.17" fill="#111e15"/><circle cx="496.4" cy="604.85" r="14.17" fill="#20401e"/><circle cx="524.75" cy="604.85" r="14.17" fill="#7fb853"/><circle cx="354.67" cy="633.2" r="14.17" fill="#b8a639"/><circle cx="411.36" cy="633.2" r="14.17" fill="#556a39"/><circle cx="439.71" cy="633.2" r="14.17" fill="#172621"/><circle cx="468.05" cy="633.2" r="14.17" fill="#b99938"/><circle cx="496.4" cy="633.2" r="14.17" fill="#26100d"/><circle cx="524.75" cy="633.2" r="14.17" fill="#b2b8a2"/><circle cx="354.67" cy="661.54" r="14.17" fill="#203c1f"/><circle cx="411.36" cy="661.54" r="14.17" fill="#1c602c"/><circle cx="439.71" cy="661.54" r="14.17" fill="#70a72f"/><circle cx="468.05" cy="661.54" r="14.17" fill="#fee476"/><circle cx="496.4" cy="661.54" r="14.17" fill="#6b4c14"/><circle cx="383.01" cy="689.89" r="14.17" fill="#6ca94e"/><circle cx="411.36" cy="689.89" r="14.17" fill="#e2e370"/><circle cx="439.71" cy="689.89" r="14.17" fill="#f9ef87"/><circle cx="468.05" cy="689.89" r="14.17" fill="#88763c"/><circle cx="496.4" cy="689.89" r="14.17" fill="#8a7a3b"/></svg>