<svg xmlns="http://www.w3.org/2000/svg" viewBox="0 0 965.45 1332.29" xmlns:v="https://vecta.io/nano"><circle cx="156.23" cy="208" r="7.07"/><circle cx="184.58" cy="208" r="7.07"/><circle cx="212.92" cy="208" r="7.07"/><circle cx="241.27" cy="208" r="7.07"/><circle cx="269.62" cy="208" r="7.07"/><circle cx="297.96" cy="208" r="7.07"/><circle cx="326.31" cy="208" r="7.07"/><circle cx="354.66" cy="208" r="7.07"/><circle cx="383" cy="208" r="7.07"/><circle cx="411.35" cy="208" r="7.07"/><circle cx="439.7" cy="208" r="7.07"/><circle cx="468.04" cy="208" r="7.07"/><circle cx="496.39" cy="208" r="7.07"/><circle cx="524.73" cy="208" r="7.07"/><circle cx="553.08" cy="208" r="7.07"/><circle cx="581.43" cy="208" r="7.07"/><circle cx="609.77" cy="208" r="7.07"/><circle cx="638.12" cy="208" r="7.07"/><circle cx="666.47" cy="208" r="7.07"/><circle cx="694.81" cy="208" r="7.07"/><circle cx="723.16" cy="208" r="7.07"/><circle cx="751.51" cy="208" r="7.07"/><circle cx="779.85" cy="208" r="7.07"/><circle cx="808.2" cy="208" r="7.07"/><circle cx="156.23" cy="236.34" r="7.07"/><circle cx="184.58" cy="236.34" r="7.07"/><circle cx="212.92" cy="236.34" r="7.07"/><circle cx="241.27" cy="236.34" r="7.07"/><circle cx="269.62" cy="236.34" r="7.07"/><circle cx="297.96" cy="236.34" r="7.07"/><circle cx="326.31" cy="236.34" r="7.07"/><circle cx="354.66" cy="236.34" r="7.07"/><circle cx="383" cy="236.34" r="7.07"/><circle cx="411.35" cy="236.34" r="7.07"/><circle cx="439.7" cy="236.34" r="7.07"/><circle cx="468.04" cy="236.34" r="7.07"/><circle cx="496.39" cy="236.34" r="7.07"/><circle cx="524.73" cy="236.34" r="7.07"/><circle cx="553.08" cy="236.34" r="7.07"/><circle cx="581.43" cy="236.34" r="7.07"/><circle cx="609.77" cy="236.34" r="7.07"/><circle cx="638.12" cy="236.34" r="7.07"/><circle cx="666.47" cy="236.34" r="7.07"/><circle cx="694.81" cy="236.34" r="7.07"/><circle cx="723.16" cy="236.34" r="7.07"/><circle cx="751.51" cy="236.34" r="7.07"/><circle cx="779.85" cy="236.34" r="7.07"/><circle cx="808.2" cy="236.34" r="7.07"/><circle cx="156.23" cy="264.69" r="7.07"/><circle cx="184.58" cy="264.69" r="7.07"/><circle cx="212.92" cy="264.69" r="7.07"/><circle cx="241.27" cy="264.69" r="7.07"/><circle cx="269.62" cy="264.69" r="7.07"/><circle cx="297.96" cy="264.69" r="7.07"/><circle cx="326.31" cy="264.69" r="7.07"/><circle cx="354.66" cy="264.69" r="7.07"/><circle cx="383" cy="264.69" r="7.07"/><circle cx="411.35" cy="264.69" r="7.07"/><circle cx="439.7" cy="264.69" r="7.07"/><circle cx="468.04" cy="264.69" r="7.07"/><circle cx="496.39" cy="264.69" r="7.07"/><circle cx="524.73" cy="264.69" r="7.07"/><circle cx="553.08" cy="264.69" r="7.07"/><circle cx="581.43" cy="264.69" r="7.07"/><circle cx="609.77" cy="264.69" r="7.07"/><circle cx="638.12" cy="264.69" r="7.07"/><circle cx="666.47" cy="264.69" r="7.07"/><circle cx="694.81" cy="264.69" r="7.07"/><circle cx="723.16" cy="264.69" r="7.07"/><circle cx="751.51" cy="264.69" r="7.07"/><circle cx="779.85" cy="264.69" r="7.07"/><circle cx="808.2" cy="264.69" r="7.07"/><circle cx="156.23" cy="293.04" r="7.07"/><circle cx="184.58" cy="293.04" r="7.07"/><circle cx="212.92" cy="293.04" r="7.07"/><circle cx="241.27" cy="293.04" r="7.07"/><circle cx="269.62" cy="293.04" r="7.07"/><circle cx="297.96" cy="293.04" r="7.07"/><circle cx="326.31" cy="293.04" r="7.07"/><circle cx="354.66" cy="293.04" r="7.07"/><circle cx="383" cy="293.04" r="7.07"/><circle cx="411.35" cy="293.04" r="7.07"/><circle cx="439.7" cy="293.04" r="7.07"/><circle cx="468.04" cy="293.04" r="7.07"/><circle cx="496.39" cy="293.04" r="7.07"/><circle cx="524.73" cy="293.04" r="7.07"/><circle cx="553.08" cy="293.04" r="7.07"/><circle cx="581.43" cy="293.04" r="7.07"/><circle cx="609.77" cy="293.04" r="7.07"/><circle cx="638.12" cy="293.04" r="7.07"/><circle cx="666.47" cy="293.04" r="7.07"/><circle cx="694.81" cy="293.04" r="7.07"/><circle cx="723.16" cy="293.04" r="7.07"/><circle cx="751.51" cy="293.04" r="7.07"/><circle cx="779.85" cy="293.04" r="7.07"/><circle cx="808.2" cy="293.04" r="7.07"/><circle cx="156.23" cy="321.38" r="7.07"/><circle cx="184.58" cy="321.38" r="7.07"/><circle cx="212.92" cy="321.38" r="7.07"/><circle cx="241.27" cy="321.38" r="7.07"/><circle cx="269.62" cy="321.38" r="7.07"/><circle cx="297.96" cy="321.38" r="7.07"/><circle cx="326.31" cy="321.38" r="7.07"/><circle cx="354.66" cy="321.38" r="7.07"/><circle cx="383" cy="321.38" r="7.07"/><circle cx="411.35" cy="321.38" r="7.07"/><circle cx="439.7" cy="321.38" r="7.07"/><circle cx="468.04" cy="321.38" r="7.07"/><circle cx="496.39" cy="321.38" r="7.07"/><circle cx="524.73" cy="321.38" r="7.07"/><circle cx="553.08" cy="321.38" r="7.07"/><circle cx="581.43" cy="321.38" r="7.07"/><circle cx="609.77" cy="321.38" r="7.07"/><circle cx="638.12" cy="321.38" r="7.07"/><circle cx="666.47" cy="321.38" r="7.07"/><circle cx="694.81" cy="321.38" r="7.07"/><circle cx="723.16" cy="321.38" r="7.07"/><circle cx="751.51" cy="321.38" r="7.07"/><circle cx="779.85" cy="321.38" r="7.07"/><circle cx="808.2" cy="321.38" r="7.07"/><circle cx="156.23" cy="349.73" r="7.07"/><circle cx="184.58" cy="349.73" r="7.07"/><circle cx="212.92" cy="349.73" r="7.07"/><circle cx="241.27" cy="349.73" r="7.07"/><circle cx="269.62" cy="349.73" r="7.07"/><circle cx="297.96" cy="349.73" r="7.07"/><circle cx="326.31" cy="349.73" r="7.07"/><circle cx="354.66" cy="349.73" r="7.07"/><circle cx="383" cy="349.73" r="7.07"/><circle cx="411.35" cy="349.73" r="7.07"/><circle cx="439.7" cy="349.73" r="7.07"/><circle cx="468.04" cy="349.73" r="7.07"/><circle cx="496.39" cy="349.73" r="7.07"/><circle cx="524.73" cy="349.73" r="7.07"/><circle cx="553.08" cy="349.73" r="7.07"/><circle cx="581.43" cy="349.73" r="7.07"/><circle cx="609.77" cy="349.73" r="7.07"/><circle cx="638.12" cy="349.73" r="7.07"/><circle cx="666.47" cy="349.73" r="7.07"/><circle cx="694.81" cy="349.73" r="7.07"/><circle cx="723.16" cy="349.73" r="7.07"/><circle cx="751.51" cy="349.73" r="7.07"/><circle cx="779.85" cy="349.73" r="7.07"/><circle cx="808.2" cy="349.73" r="7.07"/><circle cx="156.23" cy="378.08" r="7.07"/><circle cx="184.58" cy="378.08" r="7.07"/><circle cx="212.92" cy="378.08" r="7.07"/><circle cx="241.27" cy="378.08" r="7.07"/><circle cx="269.62" cy="378.08" r="7.07"/><circle cx="297.96" cy="378.08" r="7.07"/><circle cx="326.31" cy="378.08" r="7.07"/><circle cx="354.66" cy="378.08" r="7.07"/><circle cx="383" cy="378.08" r="7.07"/><circle cx="411.35" cy="378.08" r="7.07"/><circle cx="439.7" cy="378.08" r="7.07"/><circle cx="468.04" cy="378.08" r="7.07"/><circle cx="496.39" cy="378.08" r="7.07"/><circle cx="524.73" cy="378.08" r="7.07"/><circle cx="553.08" cy="378.08" r="7.07"/><circle cx="581.43" cy="378.08" r="7.07"/><circle cx="609.77" cy="378.08" r="7.07"/><circle cx="638.12" cy="378.08" r="7.07"/><circle cx="666.47" cy="378.08" r="7.07"/><circle cx="694.81" cy="378.08" r="7.07"/><circle cx="723.16" cy="378.08" r="7.07"/><circle cx="751.51" cy="378.08" r="7.07"/><circle cx="779.85" cy="378.08" r="7.07"/><circle cx="808.2" cy="378.08" r="7.07"/><circle cx="156.23" cy="406.42" r="7.07"/><circle cx="184.58" cy="406.42" r="7.07"/><circle cx="212.92" cy="406.42" r="7.07"/><circle cx="241.27" cy="406.42" r="7.07"/><circle cx="269.62" cy="406.42" r="7.07"/><circle cx="297.96" cy="406.42" r="7.07"/><circle cx="326.31" cy="406.42" r="7.07"/><circle cx="354.66" cy="406.42" r="7.07"/><circle cx="383" cy="406.42" r="7.07"/><circle cx="411.35" cy="406.42" r="7.07"/><circle cx="439.7" cy="406.42" r="7.07"/><circle cx="468.04" cy="406.42" r="7.07"/><circle cx="496.39" cy="406.42" r="7.07"/><circle cx="524.73" cy="406.42" r="7.07"/><circle cx="553.08" cy="406.42" r="7.07"/><circle cx="581.43" cy="406.42" r="7.07"/><circle cx="609.77" cy="406.42" r="7.07"/><circle cx="638.12" cy="406.42" r="7.07"/><circle cx="666.47" cy="406.42" r="7.07"/><circle cx="694.81" cy="406.42" r="7.07"/><circle cx="723.16" cy="406.42" r="7.07"/><circle cx="751.51" cy="406.42" r="7.07"/><circle cx="779.85" cy="406.42" r="7.07"/><circle cx="808.2" cy="406.42" r="7.07"/><circle cx="156.23" cy="434.77" r="7.07"/><circle cx="184.58" cy="434.77" r="7.07"/><circle cx="212.92" cy="434.77" r="7.07"/><circle cx="241.27" cy="434.77" r="7.07"/><circle cx="269.62" cy="434.77" r="7.07"/><circle cx="297.96" cy="434.77" r="7.07"/><circle cx="326.31" cy="434.77" r="7.07"/><circle cx="354.66" cy="434.77" r="7.07"/><circle cx="383" cy="434.77" r="7.07"/><circle cx="411.35" cy="434.77" r="7.07"/><circle cx="439.7" cy="434.77" r="7.07"/><circle cx="468.04" cy="434.77" r="7.07"/><circle cx="496.39" cy="434.77" r="7.07"/><circle cx="524.73" cy="434.77" r="7.07"/><circle cx="553.08" cy="434.77" r="7.07"/><circle cx="581.43" cy="434.77" r="7.07"/><circle cx="609.77" cy="434.77" r="7.07"/><circle cx="638.12" cy="434.77" r="7.07"/><circle cx="666.47" cy="434.77" r="7.07"/><circle cx="694.81" cy="434.77" r="7.07"/><circle cx="723.16" cy="434.77" r="7.07"/><circle cx="751.51" cy="434.77" r="7.07"/><circle cx="779.85" cy="434.77" r="7.07"/><circle cx="808.2" cy="434.77" r="7.07"/><circle cx="156.23" cy="463.12" r="7.07"/><circle cx="184.58" cy="463.12" r="7.07"/><circle cx="212.92" cy="463.12" r="7.07"/><circle cx="241.27" cy="463.12" r="7.07"/><circle cx="269.62" cy="463.12" r="7.07"/><circle cx="297.96" cy="463.12" r="7.07"/><circle cx="326.31" cy="463.12" r="7.07"/><circle cx="354.66" cy="463.12" r="7.07"/><circle cx="383" cy="463.12" r="7.07"/><circle cx="411.35" cy="463.12" r="7.07"/><circle cx="439.7" cy="463.12" r="7.07"/><circle cx="468.04" cy="463.12" r="7.07"/><circle cx="496.39" cy="463.12" r="7.07"/><circle cx="524.73" cy="463.12" r="7.07"/><circle cx="553.08" cy="463.12" r="7.07"/><circle cx="581.43" cy="463.12" r="7.07"/><circle cx="609.77" cy="463.12" r="7.07"/><circle cx="638.12" cy="463.12" r="7.07"/><circle cx="666.47" cy="463.12" r="7.07"/><circle cx="694.81" cy="463.12" r="7.07"/><circle cx="723.16" cy="463.12" r="7.07"/><circle cx="751.51" cy="463.12" r="7.07"/><circle cx="779.85" cy="463.12" r="7.07"/><circle cx="808.2" cy="463.12" r="7.07"/><circle cx="156.23" cy="491.46" r="7.07"/><circle cx="184.58" cy="491.46" r="7.07"/><circle cx="212.92" cy="491.46" r="7.07"/><circle cx="241.27" cy="491.46" r="7.07"/><circle cx="269.62" cy="491.46" r="7.07"/><circle cx="297.96" cy="491.46" r="7.07"/><circle cx="326.31" cy="491.46" r="7.07"/><circle cx="354.66" cy="491.46" r="7.07"/><circle cx="383" cy="491.46" r="7.07"/><circle cx="411.35" cy="491.46" r="7.07"/><circle cx="439.7" cy="491.46" r="7.07"/><circle cx="468.04" cy="491.46" r="7.07"/><circle cx="496.39" cy="491.46" r="7.07"/><circle cx="524.73" cy="491.46" r="7.07"/><circle cx="553.08" cy="491.46" r="7.07"/><circle cx="581.43" cy="491.46" r="7.07"/><circle cx="609.77" cy="491.46" r="7.07"/><circle cx="638.12" cy="491.46" r="7.07"/><circle cx="666.47" cy="491.46" r="7.07"/><circle cx="694.81" cy="491.46" r="7.07"/><circle cx="723.16" cy="491.46" r="7.07"/><circle cx="751.51" cy="491.46" r="7.07"/><circle cx="779.85" cy="491.46" r="7.07"/><circle cx="808.2" cy="491.46" r="7.07"/><circle cx="156.23" cy="519.81" r="7.07"/><circle cx="184.58" cy="519.81" r="7.07"/><circle cx="212.92" cy="519.81" r="7.07"/><circle cx="241.27" cy="519.81" r="7.07"/><circle cx="269.62" cy="519.81" r="7.07"/><circle cx="297.96" cy="519.81" r="7.07"/><circle cx="326.31" cy="519.81" r="7.07"/><circle cx="354.66" cy="519.81" r="7.07"/><circle cx="383" cy="519.81" r="7.07"/><circle cx="411.35" cy="519.81" r="7.07"/><circle cx="439.7" cy="519.81" r="7.07"/><circle cx="468.04" cy="519.81" r="7.07"/><circle cx="496.39" cy="519.81" r="7.07"/><circle cx="524.73" cy="519.81" r="7.07"/><circle cx="553.08" cy="519.81" r="7.07"/><circle cx="581.43" cy="519.81" r="7.07"/><circle cx="609.77" cy="519.81" r="7.07"/><circle cx="638.12" cy="519.81" r="7.07"/><circle cx="666.47" cy="519.81" r="7.07"/><circle cx="694.81" cy="519.81" r="7.07"/><circle cx="723.16" cy="519.81" r="7.07"/><circle cx="751.51" cy="519.81" r="7.07"/><circle cx="779.85" cy="519.81" r="7.07"/><circle cx="808.2" cy="519.81" r="7.07"/></svg>