<svg xmlns="http://www.w3.org/2000/svg" width="300" height="300" viewBox="0 0 363.002 363.002"><rect width="100%" height="100%" fill="hsl(116,70%,80%)"/><g fill="#000000" transform="scale(0.9)"><path d="M247.36 363.002H115.642c-1.771 0-3.411-.938-4.31-2.464l-7.273-12.362a4.96 4.96 0 0 1-.734-2.565v-.026V48.361c0-4.182 3.308-8.407 6.479-11.497l-3.585-3.655a5 5 0 0 1-1.431-3.501v-8.705a5 5 0 0 1 5-5h32.751L181.644.36a5 5 0 0 1 6.5 2.785c1.025 2.564-.222 5.475-2.785 6.5l-15.895 6.357h83.751a5 5 0 0 1 5 5v8.705a5 5 0 0 1-1.431 3.501l-3.585 3.655c3.171 3.09 6.479 7.315 6.479 11.497v297.206.03c-.008.954-.275 1.832-.734 2.58l-7.273 12.362a5 5 0 0 1-4.311 2.464zm-128.859-10h126l1.434-2.436H117.067l1.434 2.436zm-5.177-12.435h136.354V48.491c-.332-1.212-2.827-4.022-5.543-6.323H118.867c-2.714 2.299-5.211 5.111-5.543 6.323v292.076zm5.881-308.399h124.592l4.418-4.504v-1.662H143.617a4.37 4.37 0 0 1-.229 0h-28.601v1.662l4.418 4.504zm23.293 267.835c-.704 0-1.418-.149-2.094-.462a5 5 0 0 1-2.667-6.058l32.619-102.356H146.09a5 5 0 0 1-3.992-1.989c-.944-1.252-1.246-2.876-.815-4.385l26.322-92.125a5 5 0 0 1 4.808-3.626h44.268a5 5 0 0 1 4.66 6.813l-22.476 57.795h28.583a5 5 0 0 1 4.244 7.643l-84.946 136.393c-.94 1.507-2.567 2.357-4.248 2.357zm10.221-118.876h24.479a5 5 0 0 1 4.037 2.05c.941 1.288 1.211 2.948.727 4.469l-22.541 70.733 59.022-94.77h-26.888a5 5 0 0 1-4.66-6.813l22.476-57.795h-33.187l-23.465 82.126z"/></g><text x="10" y="350" font-size="16" fill="black">Card ID: 148</text></svg>