<svg xmlns="http://www.w3.org/2000/svg" width="300" height="300" viewBox="0 0 403.24 403.24"><rect width="100%" height="100%" fill="hsl(131,70%,80%)"/><g fill="#000000" transform="scale(0.75)"><path d="M204.66 403.24h-6.08c-11.558 0-20.96-9.402-20.96-20.96V327h-37.612c-19.789 0-35.888-16.1-35.888-35.889V97.889l.002-.169-.002-.22.007-.618a5 5 0 0 1 4.783-4.972c42.875-1.867 76.46-36.968 76.46-79.91 0-1.779-.077-3.661-.243-5.923A5 5 0 0 1 189.498.75C193.509.252 197.587 0 201.62 0c53.762 0 97.5 43.738 97.5 97.5l-.002.215.002.174v193.223c0 19.789-16.1 35.889-35.889 35.889H225.62v55.28c0 11.557-9.402 20.959-20.96 20.959zM187.62 328v54.28c0 6.043 4.917 10.96 10.96 10.96h6.08c6.043 0 10.96-4.917 10.96-10.96V328h-28zm-73.5-226.432v189.543c0 14.275 11.613 25.889 25.888 25.889h123.223c14.275 0 25.889-11.613 25.889-25.889l-.001-193.567C289.12 49.252 249.868 10 201.62 10a88.34 88.34 0 0 0-6.271.224L195.37 12c0 46.704-35.317 85.164-81.25 89.568z"/></g><text x="10" y="390" font-size="16" fill="black">Card ID: 43</text></svg>