<svg xmlns="http://www.w3.org/2000/svg" width="300" height="300" viewBox="0 0 385.251 385.251"><rect width="100%" height="100%" fill="hsl(300,70%,80%)"/><g fill="#000000" transform="scale(0.75)"><path d="M27.695 365.441c-6.487 0-12.975-2.47-17.914-7.408l-2.374-2.374c-9.877-9.877-9.877-25.949 0-35.827L281.844 45.397c38.979-38.98 97.182-22.032 99.643-21.291 1.894.571 3.273 2.205 3.519 4.167.258 2.055 5.64 50.988-51.177 107.804l-162.113 162.18a5 5 0 0 1-7.043.029l-29.893-29.425-89.171 89.171c-4.939 4.939-11.427 7.409-17.914 7.409zm75.955-127.708l-89.171 89.171c-5.979 5.979-5.979 15.706 0 21.684l2.374 2.374c5.979 5.979 15.706 5.979 21.685 0l89.171-89.17-24.059-24.059zm56.937 42.504l7.563 7.442 158.608-158.673c45.125-45.125 48.533-84.715 48.473-96.168-2.677-.604-6.821-1.414-11.969-2.018-1.498 12.786-8.837 55.64-41.871 88.673l-160.308 160.31a5.05 5.05 0 0 1-.496.434zm-49.865-49.576l31.705 31.705 11.102 10.925a4.98 4.98 0 0 1 .483-.56l160.309-160.309c30.239-30.239 37.422-70.351 38.941-82.369-18.92-.678-44.773 2.841-64.348 22.415L115.477 225.906l-3.536-3.536 3.536 3.536-4.755 4.755z"/></g><text x="10" y="370" font-size="16" fill="black">Card ID: 60</text></svg>